solid OpenSCAD_Model
  facet normal 0 0 1
    outer loop
      vertex 10.755 -2.2 0
      vertex 17 3 0
      vertex 10.755 -1.90735e-07 0
    endloop
  endfacet
  facet normal 0 0 1
    outer loop
      vertex 17 3 0
      vertex 8.55 -1.90735e-07 0
      vertex 10.755 -1.90735e-07 0
    endloop
  endfacet
  facet normal 0 0 1
    outer loop
      vertex 8.55 -1.90735e-07 0
      vertex 5.45 -1.90735e-07 0
      vertex 8.55 -1 0
    endloop
  endfacet
  facet normal -0 0 1
    outer loop
      vertex 0 3 0
      vertex 8.55 -1.90735e-07 0
      vertex 17 3 0
    endloop
  endfacet
  facet normal 0 0 1
    outer loop
      vertex 8.55 -1.90735e-07 0
      vertex 0 3 0
      vertex 5.45 -1.90735e-07 0
    endloop
  endfacet
  facet normal 0 0 1
    outer loop
      vertex 5.45 -1.90735e-07 0
      vertex 0 3 0
      vertex 0 -1.90735e-07 0
    endloop
  endfacet
  facet normal 0 0 1
    outer loop
      vertex 17 3 0
      vertex 10.755 -2.2 0
      vertex 17 -14 0
    endloop
  endfacet
  facet normal -0 0 1
    outer loop
      vertex 0 -12.955 0
      vertex 17 -14 0
      vertex 10.755 -2.2 0
    endloop
  endfacet
  facet normal 0 0 1
    outer loop
      vertex 17 -14 0
      vertex 0 -12.955 0
      vertex 0 -14 0
    endloop
  endfacet
  facet normal 0 0 1
    outer loop
      vertex 8.55 -1 0
      vertex 5.45 -1.90735e-07 0
      vertex 5.45 -1 0
    endloop
  endfacet
  facet normal 0 0 1
    outer loop
      vertex 5.45 -1.90735e-07 10.755
      vertex 0 -1.90735e-07 10.755
      vertex 5.45 -1 10.755
    endloop
  endfacet
  facet normal 0 0 1
    outer loop
      vertex 8.55 -1 10.755
      vertex 10.755 -1.90735e-07 10.755
      vertex 8.55 -1.90735e-07 10.755
    endloop
  endfacet
  facet normal 0 0 1
    outer loop
      vertex 10.755 -1.90735e-07 10.755
      vertex 8.55 -1 10.755
      vertex 10.755 -2.2 10.755
    endloop
  endfacet
  facet normal -0 0 1
    outer loop
      vertex 5.45 -1 10.755
      vertex 10.755 -2.2 10.755
      vertex 8.55 -1 10.755
    endloop
  endfacet
  facet normal 0 0 1
    outer loop
      vertex 0 -12.955 10.755
      vertex 5.45 -1 10.755
      vertex 0 -1.90735e-07 10.755
    endloop
  endfacet
  facet normal 0 0 1
    outer loop
      vertex 5.45 -1 10.755
      vertex 0 -12.955 10.755
      vertex 10.755 -2.2 10.755
    endloop
  endfacet
  facet normal 1 0 0
    outer loop
      vertex 0 3 17
      vertex 0 -1.90735e-07 10.755
      vertex 0 3 0
    endloop
  endfacet
  facet normal 1 -0 0
    outer loop
      vertex 0 -14 17
      vertex 0 -1.90735e-07 10.755
      vertex 0 3 17
    endloop
  endfacet
  facet normal 1 0 0
    outer loop
      vertex 0 -1.90735e-07 10.755
      vertex 0 -14 17
      vertex 0 -12.955 10.755
    endloop
  endfacet
  facet normal 1 0 0
    outer loop
      vertex 0 -14 0
      vertex 0 -12.955 10.755
      vertex 0 -14 17
    endloop
  endfacet
  facet normal 1 0 0
    outer loop
      vertex 0 -12.955 10.755
      vertex 0 -14 0
      vertex 0 -12.955 0
    endloop
  endfacet
  facet normal 1 0 0
    outer loop
      vertex 0 3 0
      vertex 0 -1.90735e-07 10.755
      vertex 0 -1.90735e-07 0
    endloop
  endfacet
  facet normal 0.707107 -0.707107 0
    outer loop
      vertex 7.775 -5.18 8.34234
      vertex 10.755 -2.2 9.68468
      vertex 10.755 -2.2 10.755
    endloop
  endfacet
  facet normal 0.707107 -0.707107 4.41445e-15
    outer loop
      vertex 8.55 -4.405 7
      vertex 10.755 -2.2 9.68468
      vertex 8.5441 -4.4109 7.13509
    endloop
  endfacet
  facet normal 0.707107 -0.707107 -6.00584e-15
    outer loop
      vertex 10.755 -2.2 4.31532
      vertex 8.55 -4.405 7
      vertex 8.5441 -4.4109 6.86491
    endloop
  endfacet
  facet normal 0.707107 -0.707107 0
    outer loop
      vertex 10.755 -2.2 9.68468
      vertex 8.55 -4.405 7
      vertex 10.755 -2.2 4.31532
    endloop
  endfacet
  facet normal 0.707107 -0.707107 -3.67926e-15
    outer loop
      vertex 10.755 -2.2 9.68468
      vertex 8.52645 -4.42855 7.26915
      vertex 8.5441 -4.4109 7.13509
    endloop
  endfacet
  facet normal 0.707083 -0.70713 4.31846e-05
    outer loop
      vertex 10.755 -2.2 9.68468
      vertex 8.49718 -4.45781 7.40117
      vertex 8.52645 -4.42855 7.26915
    endloop
  endfacet
  facet normal 0.707127 -0.707087 -4.23218e-05
    outer loop
      vertex 10.755 -2.2 9.68468
      vertex 8.45652 -4.49848 7.53013
      vertex 8.49718 -4.45781 7.40117
    endloop
  endfacet
  facet normal 0.707107 -0.707107 -7.87753e-15
    outer loop
      vertex 10.755 -2.2 9.68468
      vertex 8.40478 -4.55022 7.65506
      vertex 8.45652 -4.49848 7.53013
    endloop
  endfacet
  facet normal 0.707107 -0.707107 3.07398e-15
    outer loop
      vertex 10.755 -2.2 9.68468
      vertex 8.34234 -4.61266 7.775
      vertex 8.40478 -4.55022 7.65506
    endloop
  endfacet
  facet normal 0.70709 -0.707123 4.12191e-05
    outer loop
      vertex 10.755 -2.2 9.68468
      vertex 8.26968 -4.68531 7.88904
      vertex 8.34234 -4.61266 7.775
    endloop
  endfacet
  facet normal 0.707121 -0.707092 -4.3809e-05
    outer loop
      vertex 10.755 -2.2 9.68468
      vertex 8.18737 -4.76763 7.99632
      vertex 8.26968 -4.68531 7.88904
    endloop
  endfacet
  facet normal 0.707092 -0.707121 4.42603e-05
    outer loop
      vertex 10.755 -2.2 9.68468
      vertex 8.09601 -4.85898 8.09601
      vertex 8.18737 -4.76763 7.99632
    endloop
  endfacet
  facet normal 0.70712 -0.707094 -4.86082e-05
    outer loop
      vertex 10.755 -2.2 9.68468
      vertex 7.99632 -4.95868 8.18737
      vertex 8.09601 -4.85898 8.09601
    endloop
  endfacet
  facet normal 0.707107 -0.707107 4.85973e-15
    outer loop
      vertex 10.755 -2.2 9.68468
      vertex 7.88904 -5.06596 8.26968
      vertex 7.99632 -4.95868 8.18737
    endloop
  endfacet
  facet normal 0.707107 -0.707107 -3.3984e-15
    outer loop
      vertex 10.755 -2.2 9.68468
      vertex 7.775 -5.18 8.34234
      vertex 7.88904 -5.06596 8.26968
    endloop
  endfacet
  facet normal 0.707107 -0.707107 -2.64189e-15
    outer loop
      vertex 10.755 -2.2 10.755
      vertex 7.65506 -5.29994 8.40478
      vertex 7.775 -5.18 8.34234
    endloop
  endfacet
  facet normal 0.707107 -0.707107 0
    outer loop
      vertex 10.755 -2.2 10.755
      vertex 7.53013 -5.42487 8.45652
      vertex 7.65506 -5.29994 8.40478
    endloop
  endfacet
  facet normal 0.707107 -0.707107 5.87589e-15
    outer loop
      vertex 10.755 -2.2 10.755
      vertex 7.40117 -5.55383 8.49718
      vertex 7.53013 -5.42487 8.45652
    endloop
  endfacet
  facet normal 0.707087 -0.707127 5.98516e-05
    outer loop
      vertex 10.755 -2.2 10.755
      vertex 7.26915 -5.68584 8.52645
      vertex 7.40117 -5.55383 8.49718
    endloop
  endfacet
  facet normal 0.707128 -0.707085 -7.10434e-05
    outer loop
      vertex 10.755 -2.2 10.755
      vertex 7.13509 -5.81991 8.5441
      vertex 7.26915 -5.68584 8.52645
    endloop
  endfacet
  facet normal 0.707107 -0.707107 0
    outer loop
      vertex 10.755 -2.2 10.755
      vertex 7 -5.955 8.55
      vertex 7.13509 -5.81991 8.5441
    endloop
  endfacet
  facet normal 0.707107 -0.707107 0
    outer loop
      vertex 10.755 -2.2 10.755
      vertex 6.86491 -6.09009 8.5441
      vertex 7 -5.955 8.55
    endloop
  endfacet
  facet normal 0.707072 -0.707141 0.000120781
    outer loop
      vertex 10.755 -2.2 10.755
      vertex 6.73084 -6.22415 8.52645
      vertex 6.86491 -6.09009 8.5441
    endloop
  endfacet
  facet normal 0.707107 -0.707107 -3.17295e-06
    outer loop
      vertex 0 -12.955 10.755
      vertex 6.73084 -6.22415 8.52645
      vertex 10.755 -2.2 10.755
    endloop
  endfacet
  facet normal 0.707123 -0.707091 9.49908e-05
    outer loop
      vertex 6.73084 -6.22415 8.52645
      vertex 0 -12.955 10.755
      vertex 6.59883 -6.35617 8.49718
    endloop
  endfacet
  facet normal 0.707107 -0.707107 0
    outer loop
      vertex 6.59883 -6.35617 8.49718
      vertex 0 -12.955 10.755
      vertex 6.46987 -6.48513 8.45652
    endloop
  endfacet
  facet normal 0.707107 -0.707107 0
    outer loop
      vertex 6.46987 -6.48513 8.45652
      vertex 0 -12.955 10.755
      vertex 6.34494 -6.61006 8.40478
    endloop
  endfacet
  facet normal 0.707107 -0.707107 0
    outer loop
      vertex 5.4559 -7.4991 7.13509
      vertex 0 -12.955 10.755
      vertex 5.45 -7.505 7
    endloop
  endfacet
  facet normal 0.707107 -0.707107 0
    outer loop
      vertex 5.47355 -7.48145 7.26915
      vertex 0 -12.955 10.755
      vertex 5.4559 -7.4991 7.13509
    endloop
  endfacet
  facet normal 0.707122 -0.707092 4.69347e-05
    outer loop
      vertex 5.50281 -7.45218 7.40117
      vertex 0 -12.955 10.755
      vertex 5.47355 -7.48145 7.26915
    endloop
  endfacet
  facet normal 0.707093 -0.70712 -4.63323e-05
    outer loop
      vertex 5.54348 -7.41152 7.53013
      vertex 0 -12.955 10.755
      vertex 5.50281 -7.45218 7.40117
    endloop
  endfacet
  facet normal 0.707107 -0.707107 0
    outer loop
      vertex 5.59522 -7.35978 7.65506
      vertex 0 -12.955 10.755
      vertex 5.54348 -7.41152 7.53013
    endloop
  endfacet
  facet normal 0.707107 -0.707107 0
    outer loop
      vertex 5.65766 -7.29734 7.775
      vertex 0 -12.955 10.755
      vertex 5.59522 -7.35978 7.65506
    endloop
  endfacet
  facet normal 0.707119 -0.707095 4.64259e-05
    outer loop
      vertex 5.73031 -7.22468 7.88904
      vertex 0 -12.955 10.755
      vertex 5.65766 -7.29734 7.775
    endloop
  endfacet
  facet normal 0.707095 -0.707118 -4.83172e-05
    outer loop
      vertex 5.81263 -7.14237 7.99632
      vertex 0 -12.955 10.755
      vertex 5.73031 -7.22468 7.88904
    endloop
  endfacet
  facet normal 0.707119 -0.707095 4.94317e-05
    outer loop
      vertex 5.90398 -7.05101 8.09601
      vertex 0 -12.955 10.755
      vertex 5.81263 -7.14237 7.99632
    endloop
  endfacet
  facet normal 0.707095 -0.707118 -5.27703e-05
    outer loop
      vertex 6.00368 -6.95132 8.18737
      vertex 0 -12.955 10.755
      vertex 5.90398 -7.05101 8.09601
    endloop
  endfacet
  facet normal 0.707107 -0.707107 0
    outer loop
      vertex 6.11096 -6.84404 8.26968
      vertex 0 -12.955 10.755
      vertex 6.00368 -6.95132 8.18737
    endloop
  endfacet
  facet normal 0.707107 -0.707107 0
    outer loop
      vertex 6.225 -6.73 8.34234
      vertex 0 -12.955 10.755
      vertex 6.11096 -6.84404 8.26968
    endloop
  endfacet
  facet normal 0.707107 -0.707107 0
    outer loop
      vertex 6.34494 -6.61006 8.40478
      vertex 0 -12.955 10.755
      vertex 6.225 -6.73 8.34234
    endloop
  endfacet
  facet normal 0.707107 -0.707107 3.67902e-15
    outer loop
      vertex 10.755 -2.2 4.31532
      vertex 8.5441 -4.4109 6.86491
      vertex 8.52645 -4.42855 6.73084
    endloop
  endfacet
  facet normal 0.707083 -0.70713 -4.31873e-05
    outer loop
      vertex 8.49718 -4.45781 6.59883
      vertex 10.755 -2.2 4.31532
      vertex 8.52645 -4.42855 6.73084
    endloop
  endfacet
  facet normal 0.707127 -0.707087 4.23218e-05
    outer loop
      vertex 8.45652 -4.49848 6.46987
      vertex 10.755 -2.2 4.31532
      vertex 8.49718 -4.45781 6.59883
    endloop
  endfacet
  facet normal 0.707107 -0.707107 7.4098e-15
    outer loop
      vertex 8.40478 -4.55022 6.34494
      vertex 10.755 -2.2 4.31532
      vertex 8.45652 -4.49848 6.46987
    endloop
  endfacet
  facet normal 0.707107 -0.707107 -3.65035e-15
    outer loop
      vertex 8.34234 -4.61266 6.225
      vertex 10.755 -2.2 4.31532
      vertex 8.40478 -4.55022 6.34494
    endloop
  endfacet
  facet normal 0.70709 -0.707123 -4.12191e-05
    outer loop
      vertex 8.26968 -4.68531 6.11096
      vertex 10.755 -2.2 4.31532
      vertex 8.34234 -4.61266 6.225
    endloop
  endfacet
  facet normal 0.707121 -0.707092 4.3809e-05
    outer loop
      vertex 8.18737 -4.76763 6.00368
      vertex 10.755 -2.2 4.31532
      vertex 8.26968 -4.68531 6.11096
    endloop
  endfacet
  facet normal 0.707092 -0.707121 -4.42575e-05
    outer loop
      vertex 8.09601 -4.85898 5.90398
      vertex 10.755 -2.2 4.31532
      vertex 8.18737 -4.76763 6.00368
    endloop
  endfacet
  facet normal 0.70712 -0.707094 4.86115e-05
    outer loop
      vertex 7.99632 -4.95868 5.81263
      vertex 10.755 -2.2 4.31532
      vertex 8.09601 -4.85898 5.90398
    endloop
  endfacet
  facet normal 0.707107 -0.707107 -4.3532e-15
    outer loop
      vertex 7.88904 -5.06596 5.73031
      vertex 10.755 -2.2 4.31532
      vertex 7.99632 -4.95868 5.81263
    endloop
  endfacet
  facet normal 0.707107 -0.707107 5.20422e-15
    outer loop
      vertex 7.775 -5.18 5.65766
      vertex 10.755 -2.2 4.31532
      vertex 7.88904 -5.06596 5.73031
    endloop
  endfacet
  facet normal 0.707107 -0.707107 2.26192e-16
    outer loop
      vertex 7.65506 -5.29994 5.59522
      vertex 10.755 -2.2 4.31532
      vertex 7.775 -5.18 5.65766
    endloop
  endfacet
  facet normal 0.707107 -0.707107 2.45106e-16
    outer loop
      vertex 7.53013 -5.42487 5.54348
      vertex 10.755 -2.2 4.31532
      vertex 7.65506 -5.29994 5.59522
    endloop
  endfacet
  facet normal 0.707107 -0.707107 -6.77842e-15
    outer loop
      vertex 7.40117 -5.55383 5.50281
      vertex 10.755 -2.2 4.31532
      vertex 7.53013 -5.42487 5.54348
    endloop
  endfacet
  facet normal 0.707107 -0.707107 0
    outer loop
      vertex 10.755 -2.2 4.31532
      vertex 7.40117 -5.55383 5.50281
      vertex 10.755 -2.2 0
    endloop
  endfacet
  facet normal 0.707083 -0.70713 -2.87601e-05
    outer loop
      vertex 7.26915 -5.68584 5.47355
      vertex 10.755 -2.2 0
      vertex 7.40117 -5.55383 5.50281
    endloop
  endfacet
  facet normal 0.707131 -0.707083 3.21834e-05
    outer loop
      vertex 7.13509 -5.81991 5.4559
      vertex 10.755 -2.2 0
      vertex 7.26915 -5.68584 5.47355
    endloop
  endfacet
  facet normal 0.707107 -0.707107 1.03514e-16
    outer loop
      vertex 7 -5.955 5.45
      vertex 10.755 -2.2 0
      vertex 7.13509 -5.81991 5.4559
    endloop
  endfacet
  facet normal 0.707107 -0.707107 1.09937e-16
    outer loop
      vertex 6.86491 -6.09009 5.4559
      vertex 10.755 -2.2 0
      vertex 7 -5.955 5.45
    endloop
  endfacet
  facet normal 0.707078 -0.707136 -4.15023e-05
    outer loop
      vertex 6.73084 -6.22415 5.47355
      vertex 10.755 -2.2 0
      vertex 6.86491 -6.09009 5.4559
    endloop
  endfacet
  facet normal 0.707139 -0.707075 4.85887e-05
    outer loop
      vertex 6.59883 -6.35617 5.50281
      vertex 10.755 -2.2 0
      vertex 6.73084 -6.22415 5.47355
    endloop
  endfacet
  facet normal 0.707107 -0.707107 0
    outer loop
      vertex 0 -12.955 0
      vertex 6.59883 -6.35617 5.50281
      vertex 6.46987 -6.48513 5.54348
    endloop
  endfacet
  facet normal 0.707107 -0.707107 0
    outer loop
      vertex 0 -12.955 0
      vertex 6.46987 -6.48513 5.54348
      vertex 6.34494 -6.61006 5.59522
    endloop
  endfacet
  facet normal 0.707107 -0.707107 0
    outer loop
      vertex 0 -12.955 0
      vertex 6.34494 -6.61006 5.59522
      vertex 6.225 -6.73 5.65766
    endloop
  endfacet
  facet normal 0.707107 -0.707107 0
    outer loop
      vertex 0 -12.955 0
      vertex 6.225 -6.73 5.65766
      vertex 6.11096 -6.84404 5.73031
    endloop
  endfacet
  facet normal 0.707107 -0.707107 0
    outer loop
      vertex 0 -12.955 0
      vertex 6.11096 -6.84404 5.73031
      vertex 6.00368 -6.95132 5.81263
    endloop
  endfacet
  facet normal 0.707089 -0.707125 3.76376e-05
    outer loop
      vertex 0 -12.955 0
      vertex 6.00368 -6.95132 5.81263
      vertex 5.90398 -7.05101 5.90398
    endloop
  endfacet
  facet normal 0.707126 -0.707088 -3.6438e-05
    outer loop
      vertex 0 -12.955 0
      vertex 5.90398 -7.05101 5.90398
      vertex 5.81263 -7.14237 6.00368
    endloop
  endfacet
  facet normal 0.707107 -0.707107 0
    outer loop
      vertex 0 -12.955 10.755
      vertex 5.4559 -7.4991 6.86491
      vertex 5.45 -7.505 7
    endloop
  endfacet
  facet normal 0.707107 -0.707107 0
    outer loop
      vertex 0 -12.955 10.755
      vertex 5.47355 -7.48145 6.73084
      vertex 5.4559 -7.4991 6.86491
    endloop
  endfacet
  facet normal 0.707083 -0.70713 -6.39948e-05
    outer loop
      vertex 0 -12.955 10.755
      vertex 5.50281 -7.45218 6.59883
      vertex 5.47355 -7.48145 6.73084
    endloop
  endfacet
  facet normal 0.707107 -0.707106 0
    outer loop
      vertex 0 -12.955 0
      vertex 5.50281 -7.45218 6.59883
      vertex 0 -12.955 10.755
    endloop
  endfacet
  facet normal 0.707083 -0.70713 4.00807e-05
    outer loop
      vertex 5.50281 -7.45218 6.59883
      vertex 0 -12.955 0
      vertex 5.54348 -7.41152 6.46987
    endloop
  endfacet
  facet normal 0.707107 -0.707107 0
    outer loop
      vertex 5.54348 -7.41152 6.46987
      vertex 0 -12.955 0
      vertex 5.59522 -7.35978 6.34494
    endloop
  endfacet
  facet normal 0.707107 -0.707107 0
    outer loop
      vertex 5.59522 -7.35978 6.34494
      vertex 0 -12.955 0
      vertex 5.65766 -7.29734 6.225
    endloop
  endfacet
  facet normal 0.707127 -0.707087 -3.64524e-05
    outer loop
      vertex 5.65766 -7.29734 6.225
      vertex 0 -12.955 0
      vertex 5.73031 -7.22468 6.11096
    endloop
  endfacet
  facet normal 0.707088 -0.707126 3.67709e-05
    outer loop
      vertex 5.73031 -7.22468 6.11096
      vertex 0 -12.955 0
      vertex 5.81263 -7.14237 6.00368
    endloop
  endfacet
  facet normal 0.707107 -0.707107 4.24473e-17
    outer loop
      vertex 6.59883 -6.35617 5.50281
      vertex 0 -12.955 0
      vertex 10.755 -2.2 0
    endloop
  endfacet
  facet normal 0 -1 0
    outer loop
      vertex 8.55 -1 4.31532
      vertex 10.755 -1 9.68468
      vertex 8.55 -1 9.68468
    endloop
  endfacet
  facet normal 0 -1 -0
    outer loop
      vertex 10.755 -1 9.68468
      vertex 8.55 -1 4.31532
      vertex 10.755 -1 4.31532
    endloop
  endfacet
  facet normal 0 -1 0
    outer loop
      vertex 5.45 -1 4.31532
      vertex 5.45 -1 9.68468
      vertex 3.9 -1 7
    endloop
  endfacet
  facet normal 0 1 -0
    outer loop
      vertex 8.55 -1 9.68468
      vertex 5.45 -1 10.755
      vertex 8.55 -1 10.755
    endloop
  endfacet
  facet normal 0 1 0
    outer loop
      vertex 5.45 -1 10.755
      vertex 8.55 -1 9.68468
      vertex 5.45 -1 9.68468
    endloop
  endfacet
  facet normal 0 1 -0
    outer loop
      vertex 8.55 -1 0
      vertex 5.45 -1 4.31532
      vertex 8.55 -1 4.31532
    endloop
  endfacet
  facet normal 0 1 0
    outer loop
      vertex 5.45 -1 4.31532
      vertex 8.55 -1 0
      vertex 5.45 -1 0
    endloop
  endfacet
  facet normal 1 0 0
    outer loop
      vertex 10.755 -1 4.31532
      vertex 10.755 -1.90735e-07 10.755
      vertex 10.755 -1 9.68468
    endloop
  endfacet
  facet normal 1 -0 0
    outer loop
      vertex 10.755 -2.2 10.755
      vertex 10.755 -1 9.68468
      vertex 10.755 -1.90735e-07 10.755
    endloop
  endfacet
  facet normal 1 0 0
    outer loop
      vertex 10.755 -1 9.68468
      vertex 10.755 -2.2 10.755
      vertex 10.755 -2.2 9.68468
    endloop
  endfacet
  facet normal 1 0 0
    outer loop
      vertex 10.755 -1.90735e-07 10.755
      vertex 10.755 -1 4.31532
      vertex 10.755 -1.90735e-07 0
    endloop
  endfacet
  facet normal 1 0 0
    outer loop
      vertex 10.755 -2.2 0
      vertex 10.755 -1 4.31532
      vertex 10.755 -2.2 4.31532
    endloop
  endfacet
  facet normal 1 0 0
    outer loop
      vertex 10.755 -1 4.31532
      vertex 10.755 -2.2 0
      vertex 10.755 -1.90735e-07 0
    endloop
  endfacet
  facet normal -0.991444 0 -0.130531
    outer loop
      vertex 8.5441 -4.4109 7.13509
      vertex 8.52645 -2.2 7.26915
      vertex 8.5441 -2.2 7.13509
    endloop
  endfacet
  facet normal -0.991444 -0 -0.130531
    outer loop
      vertex 8.52645 -2.2 7.26915
      vertex 8.5441 -4.4109 7.13509
      vertex 8.52645 -4.42855 7.26915
    endloop
  endfacet
  facet normal -0.953719 0 0.3007
    outer loop
      vertex 8.45652 -2.2 6.46987
      vertex 8.49718 -4.45781 6.59883
      vertex 8.49718 -2.2 6.59883
    endloop
  endfacet
  facet normal -0.953719 0 0.3007
    outer loop
      vertex 8.49718 -4.45781 6.59883
      vertex 8.45652 -2.2 6.46987
      vertex 8.45652 -4.49848 6.46987
    endloop
  endfacet
  facet normal -0.737271 0 0.675597
    outer loop
      vertex 8.09601 -2.2 5.90398
      vertex 8.18737 -4.76763 6.00368
      vertex 8.18737 -2.2 6.00368
    endloop
  endfacet
  facet normal -0.737271 0 0.675597
    outer loop
      vertex 8.18737 -4.76763 6.00368
      vertex 8.09601 -2.2 5.90398
      vertex 8.09601 -4.85898 5.90398
    endloop
  endfacet
  facet normal -0.216382 0 0.976309
    outer loop
      vertex 7.26915 -2.2 5.47355
      vertex 7.40117 -5.55383 5.50281
      vertex 7.40117 -2.2 5.50281
    endloop
  endfacet
  facet normal -0.216382 0 0.976309
    outer loop
      vertex 7.40117 -5.55383 5.50281
      vertex 7.26915 -2.2 5.47355
      vertex 7.26915 -5.68584 5.47355
    endloop
  endfacet
  facet normal 0.537292 0 0.843396
    outer loop
      vertex 6.11096 -2.2 5.73031
      vertex 6.225 -6.73 5.65766
      vertex 6.225 -2.2 5.65766
    endloop
  endfacet
  facet normal 0.537292 0 0.843396
    outer loop
      vertex 6.225 -6.73 5.65766
      vertex 6.11096 -2.2 5.73031
      vertex 6.11096 -6.84404 5.73031
    endloop
  endfacet
  facet normal -0.887001 0 0.461767
    outer loop
      vertex 8.34234 -2.2 6.225
      vertex 8.40478 -4.55022 6.34494
      vertex 8.40478 -2.2 6.34494
    endloop
  endfacet
  facet normal -0.887001 0 0.461767
    outer loop
      vertex 8.40478 -4.55022 6.34494
      vertex 8.34234 -2.2 6.225
      vertex 8.34234 -4.61266 6.225
    endloop
  endfacet
  facet normal -0.9239 0 0.382635
    outer loop
      vertex 8.40478 -2.2 6.34494
      vertex 8.45652 -4.49848 6.46987
      vertex 8.45652 -2.2 6.46987
    endloop
  endfacet
  facet normal -0.9239 0 0.382635
    outer loop
      vertex 8.45652 -4.49848 6.46987
      vertex 8.40478 -2.2 6.34494
      vertex 8.40478 -4.55022 6.34494
    endloop
  endfacet
  facet normal -0.675594 0 0.737274
    outer loop
      vertex 7.99632 -2.2 5.81263
      vertex 8.09601 -4.85898 5.90398
      vertex 8.09601 -2.2 5.90398
    endloop
  endfacet
  facet normal -0.675594 0 0.737274
    outer loop
      vertex 8.09601 -4.85898 5.90398
      vertex 7.99632 -2.2 5.81263
      vertex 7.99632 -4.95868 5.81263
    endloop
  endfacet
  facet normal -0.043633 -0 -0.999048
    outer loop
      vertex 7 -2.2 8.55
      vertex 7.13509 -5.81991 8.5441
      vertex 7 -5.955 8.55
    endloop
  endfacet
  facet normal -0.043633 0 -0.999048
    outer loop
      vertex 7.13509 -5.81991 8.5441
      vertex 7 -2.2 8.55
      vertex 7.13509 -2.2 8.5441
    endloop
  endfacet
  facet normal 0.9239 0 0.382635
    outer loop
      vertex 5.54348 -2.2 6.46987
      vertex 5.59522 -7.35978 6.34494
      vertex 5.59522 -2.2 6.34494
    endloop
  endfacet
  facet normal 0.9239 0 0.382635
    outer loop
      vertex 5.59522 -7.35978 6.34494
      vertex 5.54348 -2.2 6.46987
      vertex 5.54348 -7.41152 6.46987
    endloop
  endfacet
  facet normal 0.537344 0 -0.843363
    outer loop
      vertex 6.11096 -2.2 8.26968
      vertex 6.225 -6.73 8.34234
      vertex 6.11096 -6.84404 8.26968
    endloop
  endfacet
  facet normal 0.537344 0 -0.843363
    outer loop
      vertex 6.225 -6.73 8.34234
      vertex 6.11096 -2.2 8.26968
      vertex 6.225 -2.2 8.34234
    endloop
  endfacet
  facet normal -0.953719 0 -0.3007
    outer loop
      vertex 8.49718 -4.45781 7.40117
      vertex 8.45652 -2.2 7.53013
      vertex 8.49718 -2.2 7.40117
    endloop
  endfacet
  facet normal -0.953719 -0 -0.3007
    outer loop
      vertex 8.45652 -2.2 7.53013
      vertex 8.49718 -4.45781 7.40117
      vertex 8.45652 -4.49848 7.53013
    endloop
  endfacet
  facet normal 0.953698 0 -0.300767
    outer loop
      vertex 5.54348 -7.41152 7.53013
      vertex 5.50281 -2.2 7.40117
      vertex 5.54348 -2.2 7.53013
    endloop
  endfacet
  facet normal 0.953698 0 -0.300767
    outer loop
      vertex 5.50281 -2.2 7.40117
      vertex 5.54348 -7.41152 7.53013
      vertex 5.50281 -7.45218 7.40117
    endloop
  endfacet
  facet normal 0.953698 0 0.300767
    outer loop
      vertex 5.50281 -2.2 6.59883
      vertex 5.54348 -7.41152 6.46987
      vertex 5.54348 -2.2 6.46987
    endloop
  endfacet
  facet normal 0.953698 0 0.300767
    outer loop
      vertex 5.54348 -7.41152 6.46987
      vertex 5.50281 -2.2 6.59883
      vertex 5.50281 -7.45218 6.59883
    endloop
  endfacet
  facet normal -0.3007 -0 -0.953719
    outer loop
      vertex 7.40117 -2.2 8.49718
      vertex 7.53013 -5.42487 8.45652
      vertex 7.40117 -5.55383 8.49718
    endloop
  endfacet
  facet normal -0.3007 0 -0.953719
    outer loop
      vertex 7.53013 -5.42487 8.45652
      vertex 7.40117 -2.2 8.49718
      vertex 7.53013 -2.2 8.45652
    endloop
  endfacet
  facet normal -0.991445 0 0.130521
    outer loop
      vertex 8.52645 -2.2 6.73084
      vertex 8.5441 -4.4109 6.86491
      vertex 8.5441 -2.2 6.86491
    endloop
  endfacet
  facet normal -0.991445 0 0.130521
    outer loop
      vertex 8.5441 -4.4109 6.86491
      vertex 8.52645 -2.2 6.73084
      vertex 8.52645 -4.42855 6.73084
    endloop
  endfacet
  facet normal -0.999048 0 -0.043633
    outer loop
      vertex 8.55 -4.405 7
      vertex 8.5441 -2.2 7.13509
      vertex 8.55 -2.2 7
    endloop
  endfacet
  facet normal -0.999048 -0 -0.043633
    outer loop
      vertex 8.5441 -2.2 7.13509
      vertex 8.55 -4.405 7
      vertex 8.5441 -4.4109 7.13509
    endloop
  endfacet
  facet normal -0.976293 0 -0.216453
    outer loop
      vertex 8.52645 -4.42855 7.26915
      vertex 8.49718 -2.2 7.40117
      vertex 8.52645 -2.2 7.26915
    endloop
  endfacet
  facet normal -0.976293 -0 -0.216453
    outer loop
      vertex 8.49718 -2.2 7.40117
      vertex 8.52645 -4.42855 7.26915
      vertex 8.49718 -4.45781 7.40117
    endloop
  endfacet
  facet normal 0.130521 0 -0.991445
    outer loop
      vertex 6.73084 -2.2 8.52645
      vertex 6.86491 -6.09009 8.5441
      vertex 6.73084 -6.22415 8.52645
    endloop
  endfacet
  facet normal 0.130521 0 -0.991445
    outer loop
      vertex 6.86491 -6.09009 8.5441
      vertex 6.73084 -2.2 8.52645
      vertex 6.86491 -2.2 8.5441
    endloop
  endfacet
  facet normal 0.216468 0 -0.97629
    outer loop
      vertex 6.59883 -2.2 8.49718
      vertex 6.73084 -6.22415 8.52645
      vertex 6.59883 -6.35617 8.49718
    endloop
  endfacet
  facet normal 0.216468 0 -0.97629
    outer loop
      vertex 6.73084 -6.22415 8.52645
      vertex 6.59883 -2.2 8.49718
      vertex 6.73084 -2.2 8.52645
    endloop
  endfacet
  facet normal 0.737308 0 0.675557
    outer loop
      vertex 5.81263 -2.2 6.00368
      vertex 5.90398 -7.05101 5.90398
      vertex 5.90398 -2.2 5.90398
    endloop
  endfacet
  facet normal 0.737308 0 0.675557
    outer loop
      vertex 5.90398 -7.05101 5.90398
      vertex 5.81263 -2.2 6.00368
      vertex 5.81263 -7.14237 6.00368
    endloop
  endfacet
  facet normal -0.60872 -0 -0.793385
    outer loop
      vertex 7.88904 -2.2 8.26968
      vertex 7.99632 -4.95868 8.18737
      vertex 7.88904 -5.06596 8.26968
    endloop
  endfacet
  facet normal -0.60872 0 -0.793385
    outer loop
      vertex 7.99632 -4.95868 8.18737
      vertex 7.88904 -2.2 8.26968
      vertex 7.99632 -2.2 8.18737
    endloop
  endfacet
  facet normal 0.043633 0 0.999048
    outer loop
      vertex 6.86491 -2.2 5.4559
      vertex 7 -5.955 5.45
      vertex 7 -2.2 5.45
    endloop
  endfacet
  facet normal 0.043633 0 0.999048
    outer loop
      vertex 7 -5.955 5.45
      vertex 6.86491 -2.2 5.4559
      vertex 6.86491 -6.09009 5.4559
    endloop
  endfacet
  facet normal 0.976309 0 -0.216382
    outer loop
      vertex 5.50281 -7.45218 7.40117
      vertex 5.47355 -2.2 7.26915
      vertex 5.50281 -2.2 7.40117
    endloop
  endfacet
  facet normal 0.976309 0 -0.216382
    outer loop
      vertex 5.47355 -2.2 7.26915
      vertex 5.50281 -7.45218 7.40117
      vertex 5.47355 -7.48145 7.26915
    endloop
  endfacet
  facet normal 0.675557 0 0.737308
    outer loop
      vertex 5.90398 -2.2 5.90398
      vertex 6.00368 -6.95132 5.81263
      vertex 6.00368 -2.2 5.81263
    endloop
  endfacet
  facet normal 0.675557 0 0.737308
    outer loop
      vertex 6.00368 -6.95132 5.81263
      vertex 5.90398 -2.2 5.90398
      vertex 5.90398 -7.05101 5.90398
    endloop
  endfacet
  facet normal -0.97629 0 0.216468
    outer loop
      vertex 8.49718 -2.2 6.59883
      vertex 8.52645 -4.42855 6.73084
      vertex 8.52645 -2.2 6.73084
    endloop
  endfacet
  facet normal -0.97629 0 0.216468
    outer loop
      vertex 8.52645 -4.42855 6.73084
      vertex 8.49718 -2.2 6.59883
      vertex 8.49718 -4.45781 6.59883
    endloop
  endfacet
  facet normal -0.608767 0 0.793349
    outer loop
      vertex 7.88904 -2.2 5.73031
      vertex 7.99632 -4.95868 5.81263
      vertex 7.99632 -2.2 5.81263
    endloop
  endfacet
  facet normal -0.608767 0 0.793349
    outer loop
      vertex 7.99632 -4.95868 5.81263
      vertex 7.88904 -2.2 5.73031
      vertex 7.88904 -5.06596 5.73031
    endloop
  endfacet
  facet normal -0.130531 -0 -0.991444
    outer loop
      vertex 7.13509 -2.2 8.5441
      vertex 7.26915 -5.68584 8.52645
      vertex 7.13509 -5.81991 8.5441
    endloop
  endfacet
  facet normal -0.130531 0 -0.991444
    outer loop
      vertex 7.26915 -5.68584 8.52645
      vertex 7.13509 -2.2 8.5441
      vertex 7.26915 -2.2 8.52645
    endloop
  endfacet
  facet normal 0.737274 0 -0.675594
    outer loop
      vertex 5.90398 -7.05101 8.09601
      vertex 5.81263 -2.2 7.99632
      vertex 5.90398 -2.2 8.09601
    endloop
  endfacet
  facet normal 0.737274 0 -0.675594
    outer loop
      vertex 5.81263 -2.2 7.99632
      vertex 5.90398 -7.05101 8.09601
      vertex 5.81263 -7.14237 7.99632
    endloop
  endfacet
  facet normal -0.999048 0 0.043633
    outer loop
      vertex 8.5441 -2.2 6.86491
      vertex 8.55 -4.405 7
      vertex 8.55 -2.2 7
    endloop
  endfacet
  facet normal -0.999048 0 0.043633
    outer loop
      vertex 8.55 -4.405 7
      vertex 8.5441 -2.2 6.86491
      vertex 8.5441 -4.4109 6.86491
    endloop
  endfacet
  facet normal -0.300767 0 0.953698
    outer loop
      vertex 7.40117 -2.2 5.50281
      vertex 7.53013 -5.42487 5.54348
      vertex 7.53013 -2.2 5.54348
    endloop
  endfacet
  facet normal -0.300767 0 0.953698
    outer loop
      vertex 7.53013 -5.42487 5.54348
      vertex 7.40117 -2.2 5.50281
      vertex 7.40117 -5.55383 5.50281
    endloop
  endfacet
  facet normal -0.382635 -0 -0.9239
    outer loop
      vertex 7.53013 -2.2 8.45652
      vertex 7.65506 -5.29994 8.40478
      vertex 7.53013 -5.42487 8.45652
    endloop
  endfacet
  facet normal -0.382635 0 -0.9239
    outer loop
      vertex 7.65506 -5.29994 8.40478
      vertex 7.53013 -2.2 8.45652
      vertex 7.65506 -2.2 8.40478
    endloop
  endfacet
  facet normal 0.9239 0 -0.382635
    outer loop
      vertex 5.59522 -7.35978 7.65506
      vertex 5.54348 -2.2 7.53013
      vertex 5.59522 -2.2 7.65506
    endloop
  endfacet
  facet normal 0.9239 0 -0.382635
    outer loop
      vertex 5.54348 -2.2 7.53013
      vertex 5.59522 -7.35978 7.65506
      vertex 5.54348 -7.41152 7.53013
    endloop
  endfacet
  facet normal 0.793349 0 -0.608767
    outer loop
      vertex 5.81263 -7.14237 7.99632
      vertex 5.73031 -2.2 7.88904
      vertex 5.81263 -2.2 7.99632
    endloop
  endfacet
  facet normal 0.793349 0 -0.608767
    outer loop
      vertex 5.73031 -2.2 7.88904
      vertex 5.81263 -7.14237 7.99632
      vertex 5.73031 -7.22468 7.88904
    endloop
  endfacet
  facet normal 0.843396 0 -0.537292
    outer loop
      vertex 5.73031 -7.22468 7.88904
      vertex 5.65766 -2.2 7.775
      vertex 5.73031 -2.2 7.88904
    endloop
  endfacet
  facet normal 0.843396 0 -0.537292
    outer loop
      vertex 5.65766 -2.2 7.775
      vertex 5.73031 -7.22468 7.88904
      vertex 5.65766 -7.29734 7.775
    endloop
  endfacet
  facet normal -0.9239 0 -0.382635
    outer loop
      vertex 8.45652 -4.49848 7.53013
      vertex 8.40478 -2.2 7.65506
      vertex 8.45652 -2.2 7.53013
    endloop
  endfacet
  facet normal -0.9239 -0 -0.382635
    outer loop
      vertex 8.40478 -2.2 7.65506
      vertex 8.45652 -4.49848 7.53013
      vertex 8.40478 -4.55022 7.65506
    endloop
  endfacet
  facet normal -0.793385 0 -0.60872
    outer loop
      vertex 8.26968 -4.68531 7.88904
      vertex 8.18737 -2.2 7.99632
      vertex 8.26968 -2.2 7.88904
    endloop
  endfacet
  facet normal -0.793385 -0 -0.60872
    outer loop
      vertex 8.18737 -2.2 7.99632
      vertex 8.26968 -4.68531 7.88904
      vertex 8.18737 -4.76763 7.99632
    endloop
  endfacet
  facet normal -0.216453 -0 -0.976293
    outer loop
      vertex 7.26915 -2.2 8.52645
      vertex 7.40117 -5.55383 8.49718
      vertex 7.26915 -5.68584 8.52645
    endloop
  endfacet
  facet normal -0.216453 0 -0.976293
    outer loop
      vertex 7.40117 -5.55383 8.49718
      vertex 7.26915 -2.2 8.52645
      vertex 7.40117 -2.2 8.49718
    endloop
  endfacet
  facet normal 0.991445 0 0.130521
    outer loop
      vertex 5.4559 -2.2 6.86491
      vertex 5.47355 -7.48145 6.73084
      vertex 5.47355 -2.2 6.73084
    endloop
  endfacet
  facet normal 0.991445 0 0.130521
    outer loop
      vertex 5.47355 -7.48145 6.73084
      vertex 5.4559 -2.2 6.86491
      vertex 5.4559 -7.4991 6.86491
    endloop
  endfacet
  facet normal -0.537344 -0 -0.843363
    outer loop
      vertex 7.775 -2.2 8.34234
      vertex 7.88904 -5.06596 8.26968
      vertex 7.775 -5.18 8.34234
    endloop
  endfacet
  facet normal -0.537344 0 -0.843363
    outer loop
      vertex 7.88904 -5.06596 8.26968
      vertex 7.775 -2.2 8.34234
      vertex 7.88904 -2.2 8.26968
    endloop
  endfacet
  facet normal -0.461767 -0 -0.887001
    outer loop
      vertex 7.65506 -2.2 8.40478
      vertex 7.775 -5.18 8.34234
      vertex 7.65506 -5.29994 8.40478
    endloop
  endfacet
  facet normal -0.461767 0 -0.887001
    outer loop
      vertex 7.775 -5.18 8.34234
      vertex 7.65506 -2.2 8.40478
      vertex 7.775 -2.2 8.34234
    endloop
  endfacet
  facet normal 0.991444 0 -0.130531
    outer loop
      vertex 5.47355 -7.48145 7.26915
      vertex 5.4559 -2.2 7.13509
      vertex 5.47355 -2.2 7.26915
    endloop
  endfacet
  facet normal 0.991444 0 -0.130531
    outer loop
      vertex 5.4559 -2.2 7.13509
      vertex 5.47355 -7.48145 7.26915
      vertex 5.4559 -7.4991 7.13509
    endloop
  endfacet
  facet normal -0.130531 0 0.991444
    outer loop
      vertex 7.13509 -2.2 5.4559
      vertex 7.26915 -5.68584 5.47355
      vertex 7.26915 -2.2 5.47355
    endloop
  endfacet
  facet normal -0.130531 0 0.991444
    outer loop
      vertex 7.26915 -5.68584 5.47355
      vertex 7.13509 -2.2 5.4559
      vertex 7.13509 -5.81991 5.4559
    endloop
  endfacet
  facet normal -0.887001 0 -0.461767
    outer loop
      vertex 8.40478 -4.55022 7.65506
      vertex 8.34234 -2.2 7.775
      vertex 8.40478 -2.2 7.65506
    endloop
  endfacet
  facet normal -0.887001 -0 -0.461767
    outer loop
      vertex 8.34234 -2.2 7.775
      vertex 8.40478 -4.55022 7.65506
      vertex 8.34234 -4.61266 7.775
    endloop
  endfacet
  facet normal 0.3007 0 -0.953719
    outer loop
      vertex 6.46987 -2.2 8.45652
      vertex 6.59883 -6.35617 8.49718
      vertex 6.46987 -6.48513 8.45652
    endloop
  endfacet
  facet normal 0.3007 0 -0.953719
    outer loop
      vertex 6.59883 -6.35617 8.49718
      vertex 6.46987 -2.2 8.45652
      vertex 6.59883 -2.2 8.49718
    endloop
  endfacet
  facet normal 0.60872 0 -0.793385
    outer loop
      vertex 6.00368 -2.2 8.18737
      vertex 6.11096 -6.84404 8.26968
      vertex 6.00368 -6.95132 8.18737
    endloop
  endfacet
  facet normal 0.60872 0 -0.793385
    outer loop
      vertex 6.11096 -6.84404 8.26968
      vertex 6.00368 -2.2 8.18737
      vertex 6.11096 -2.2 8.26968
    endloop
  endfacet
  facet normal 0.887001 0 0.461767
    outer loop
      vertex 5.59522 -2.2 6.34494
      vertex 5.65766 -7.29734 6.225
      vertex 5.65766 -2.2 6.225
    endloop
  endfacet
  facet normal 0.887001 0 0.461767
    outer loop
      vertex 5.65766 -7.29734 6.225
      vertex 5.59522 -2.2 6.34494
      vertex 5.59522 -7.35978 6.34494
    endloop
  endfacet
  facet normal -0.843363 0 0.537344
    outer loop
      vertex 8.26968 -2.2 6.11096
      vertex 8.34234 -4.61266 6.225
      vertex 8.34234 -2.2 6.225
    endloop
  endfacet
  facet normal -0.843363 0 0.537344
    outer loop
      vertex 8.34234 -4.61266 6.225
      vertex 8.26968 -2.2 6.11096
      vertex 8.26968 -4.68531 6.11096
    endloop
  endfacet
  facet normal 0.216398 0 0.976305
    outer loop
      vertex 6.59883 -2.2 5.50281
      vertex 6.73084 -6.22415 5.47355
      vertex 6.73084 -2.2 5.47355
    endloop
  endfacet
  facet normal 0.216398 0 0.976305
    outer loop
      vertex 6.73084 -6.22415 5.47355
      vertex 6.59883 -2.2 5.50281
      vertex 6.59883 -6.35617 5.50281
    endloop
  endfacet
  facet normal 0.675597 0 -0.737271
    outer loop
      vertex 5.90398 -2.2 8.09601
      vertex 6.00368 -6.95132 8.18737
      vertex 5.90398 -7.05101 8.09601
    endloop
  endfacet
  facet normal 0.675597 0 -0.737271
    outer loop
      vertex 6.00368 -6.95132 8.18737
      vertex 5.90398 -2.2 8.09601
      vertex 6.00368 -2.2 8.18737
    endloop
  endfacet
  facet normal -0.675634 -0 -0.737237
    outer loop
      vertex 7.99632 -2.2 8.18737
      vertex 8.09601 -4.85898 8.09601
      vertex 7.99632 -4.95868 8.18737
    endloop
  endfacet
  facet normal -0.675634 0 -0.737237
    outer loop
      vertex 8.09601 -4.85898 8.09601
      vertex 7.99632 -2.2 8.18737
      vertex 8.09601 -2.2 8.09601
    endloop
  endfacet
  facet normal 0.999048 0 0.043633
    outer loop
      vertex 5.45 -2.2 7
      vertex 5.4559 -7.4991 6.86491
      vertex 5.4559 -2.2 6.86491
    endloop
  endfacet
  facet normal 0.999048 0 0.043633
    outer loop
      vertex 5.4559 -7.4991 6.86491
      vertex 5.45 -2.2 7
      vertex 5.45 -7.505 7
    endloop
  endfacet
  facet normal 0.887001 0 -0.461767
    outer loop
      vertex 5.65766 -7.29734 7.775
      vertex 5.59522 -2.2 7.65506
      vertex 5.65766 -2.2 7.775
    endloop
  endfacet
  facet normal 0.887001 0 -0.461767
    outer loop
      vertex 5.59522 -2.2 7.65506
      vertex 5.65766 -7.29734 7.775
      vertex 5.59522 -7.35978 7.65506
    endloop
  endfacet
  facet normal -0.843363 0 -0.537344
    outer loop
      vertex 8.34234 -4.61266 7.775
      vertex 8.26968 -2.2 7.88904
      vertex 8.34234 -2.2 7.775
    endloop
  endfacet
  facet normal -0.843363 -0 -0.537344
    outer loop
      vertex 8.26968 -2.2 7.88904
      vertex 8.34234 -4.61266 7.775
      vertex 8.26968 -4.68531 7.88904
    endloop
  endfacet
  facet normal 0.043633 0 -0.999048
    outer loop
      vertex 6.86491 -2.2 8.5441
      vertex 7 -5.955 8.55
      vertex 6.86491 -6.09009 8.5441
    endloop
  endfacet
  facet normal 0.043633 0 -0.999048
    outer loop
      vertex 7 -5.955 8.55
      vertex 6.86491 -2.2 8.5441
      vertex 7 -2.2 8.55
    endloop
  endfacet
  facet normal 0.130521 0 0.991445
    outer loop
      vertex 6.73084 -2.2 5.47355
      vertex 6.86491 -6.09009 5.4559
      vertex 6.86491 -2.2 5.4559
    endloop
  endfacet
  facet normal 0.130521 0 0.991445
    outer loop
      vertex 6.86491 -6.09009 5.4559
      vertex 6.73084 -2.2 5.47355
      vertex 6.73084 -6.22415 5.47355
    endloop
  endfacet
  facet normal 0.461767 0 0.887001
    outer loop
      vertex 6.225 -2.2 5.65766
      vertex 6.34494 -6.61006 5.59522
      vertex 6.34494 -2.2 5.59522
    endloop
  endfacet
  facet normal 0.461767 0 0.887001
    outer loop
      vertex 6.34494 -6.61006 5.59522
      vertex 6.225 -2.2 5.65766
      vertex 6.225 -6.73 5.65766
    endloop
  endfacet
  facet normal 0.382635 0 -0.9239
    outer loop
      vertex 6.34494 -2.2 8.40478
      vertex 6.46987 -6.48513 8.45652
      vertex 6.34494 -6.61006 8.40478
    endloop
  endfacet
  facet normal 0.382635 0 -0.9239
    outer loop
      vertex 6.46987 -6.48513 8.45652
      vertex 6.34494 -2.2 8.40478
      vertex 6.46987 -2.2 8.45652
    endloop
  endfacet
  facet normal 0.999048 0 -0.043633
    outer loop
      vertex 5.4559 -7.4991 7.13509
      vertex 5.45 -2.2 7
      vertex 5.4559 -2.2 7.13509
    endloop
  endfacet
  facet normal 0.999048 0 -0.043633
    outer loop
      vertex 5.45 -2.2 7
      vertex 5.4559 -7.4991 7.13509
      vertex 5.45 -7.505 7
    endloop
  endfacet
  facet normal 0.300767 0 0.953698
    outer loop
      vertex 6.46987 -2.2 5.54348
      vertex 6.59883 -6.35617 5.50281
      vertex 6.59883 -2.2 5.50281
    endloop
  endfacet
  facet normal 0.300767 0 0.953698
    outer loop
      vertex 6.59883 -6.35617 5.50281
      vertex 6.46987 -2.2 5.54348
      vertex 6.46987 -6.48513 5.54348
    endloop
  endfacet
  facet normal 0.976305 0 0.216398
    outer loop
      vertex 5.47355 -2.2 6.73084
      vertex 5.50281 -7.45218 6.59883
      vertex 5.50281 -2.2 6.59883
    endloop
  endfacet
  facet normal 0.976305 0 0.216398
    outer loop
      vertex 5.50281 -7.45218 6.59883
      vertex 5.47355 -2.2 6.73084
      vertex 5.47355 -7.48145 6.73084
    endloop
  endfacet
  facet normal -0.382635 0 0.9239
    outer loop
      vertex 7.53013 -2.2 5.54348
      vertex 7.65506 -5.29994 5.59522
      vertex 7.65506 -2.2 5.59522
    endloop
  endfacet
  facet normal -0.382635 0 0.9239
    outer loop
      vertex 7.65506 -5.29994 5.59522
      vertex 7.53013 -2.2 5.54348
      vertex 7.53013 -5.42487 5.54348
    endloop
  endfacet
  facet normal 0.608767 0 0.793349
    outer loop
      vertex 6.00368 -2.2 5.81263
      vertex 6.11096 -6.84404 5.73031
      vertex 6.11096 -2.2 5.73031
    endloop
  endfacet
  facet normal 0.608767 0 0.793349
    outer loop
      vertex 6.11096 -6.84404 5.73031
      vertex 6.00368 -2.2 5.81263
      vertex 6.00368 -6.95132 5.81263
    endloop
  endfacet
  facet normal -0.737237 0 -0.675634
    outer loop
      vertex 8.18737 -4.76763 7.99632
      vertex 8.09601 -2.2 8.09601
      vertex 8.18737 -2.2 7.99632
    endloop
  endfacet
  facet normal -0.737237 -0 -0.675634
    outer loop
      vertex 8.09601 -2.2 8.09601
      vertex 8.18737 -4.76763 7.99632
      vertex 8.09601 -4.85898 8.09601
    endloop
  endfacet
  facet normal -0.461767 0 0.887001
    outer loop
      vertex 7.65506 -2.2 5.59522
      vertex 7.775 -5.18 5.65766
      vertex 7.775 -2.2 5.65766
    endloop
  endfacet
  facet normal -0.461767 0 0.887001
    outer loop
      vertex 7.775 -5.18 5.65766
      vertex 7.65506 -2.2 5.59522
      vertex 7.65506 -5.29994 5.59522
    endloop
  endfacet
  facet normal -0.793385 0 0.60872
    outer loop
      vertex 8.18737 -2.2 6.00368
      vertex 8.26968 -4.68531 6.11096
      vertex 8.26968 -2.2 6.11096
    endloop
  endfacet
  facet normal -0.793385 0 0.60872
    outer loop
      vertex 8.26968 -4.68531 6.11096
      vertex 8.18737 -2.2 6.00368
      vertex 8.18737 -4.76763 6.00368
    endloop
  endfacet
  facet normal -0.043633 0 0.999048
    outer loop
      vertex 7 -2.2 5.45
      vertex 7.13509 -5.81991 5.4559
      vertex 7.13509 -2.2 5.4559
    endloop
  endfacet
  facet normal -0.043633 0 0.999048
    outer loop
      vertex 7.13509 -5.81991 5.4559
      vertex 7 -2.2 5.45
      vertex 7 -5.955 5.45
    endloop
  endfacet
  facet normal -0.537292 0 0.843396
    outer loop
      vertex 7.775 -2.2 5.65766
      vertex 7.88904 -5.06596 5.73031
      vertex 7.88904 -2.2 5.73031
    endloop
  endfacet
  facet normal -0.537292 0 0.843396
    outer loop
      vertex 7.88904 -5.06596 5.73031
      vertex 7.775 -2.2 5.65766
      vertex 7.775 -5.18 5.65766
    endloop
  endfacet
  facet normal 0.461767 0 -0.887001
    outer loop
      vertex 6.225 -2.2 8.34234
      vertex 6.34494 -6.61006 8.40478
      vertex 6.225 -6.73 8.34234
    endloop
  endfacet
  facet normal 0.461767 0 -0.887001
    outer loop
      vertex 6.34494 -6.61006 8.40478
      vertex 6.225 -2.2 8.34234
      vertex 6.34494 -2.2 8.40478
    endloop
  endfacet
  facet normal 0.382635 0 0.9239
    outer loop
      vertex 6.34494 -2.2 5.59522
      vertex 6.46987 -6.48513 5.54348
      vertex 6.46987 -2.2 5.54348
    endloop
  endfacet
  facet normal 0.382635 0 0.9239
    outer loop
      vertex 6.46987 -6.48513 5.54348
      vertex 6.34494 -2.2 5.59522
      vertex 6.34494 -6.61006 5.59522
    endloop
  endfacet
  facet normal 0.843396 0 0.537292
    outer loop
      vertex 5.65766 -2.2 6.225
      vertex 5.73031 -7.22468 6.11096
      vertex 5.73031 -2.2 6.11096
    endloop
  endfacet
  facet normal 0.843396 0 0.537292
    outer loop
      vertex 5.73031 -7.22468 6.11096
      vertex 5.65766 -2.2 6.225
      vertex 5.65766 -7.29734 6.225
    endloop
  endfacet
  facet normal 0.793349 0 0.608767
    outer loop
      vertex 5.73031 -2.2 6.11096
      vertex 5.81263 -7.14237 6.00368
      vertex 5.81263 -2.2 6.00368
    endloop
  endfacet
  facet normal 0.793349 0 0.608767
    outer loop
      vertex 5.81263 -7.14237 6.00368
      vertex 5.73031 -2.2 6.11096
      vertex 5.73031 -7.22468 6.11096
    endloop
  endfacet
  facet normal 0.866026 0 -0.5
    outer loop
      vertex 5.45 -2.2 9.68468
      vertex 3.9 -1 7
      vertex 5.45 -1 9.68468
    endloop
  endfacet
  facet normal 0.866026 0 -0.5
    outer loop
      vertex 3.9 -1 7
      vertex 5.45 -2.2 9.68468
      vertex 3.9 -2.2 7
    endloop
  endfacet
  facet normal 0 1 -0
    outer loop
      vertex 7.26915 -2.2 8.52645
      vertex 5.45 -2.2 9.68468
      vertex 10.755 -2.2 9.68468
    endloop
  endfacet
  facet normal 0 1 0
    outer loop
      vertex 5.45 -2.2 9.68468
      vertex 7.13509 -2.2 8.5441
      vertex 7 -2.2 8.55
    endloop
  endfacet
  facet normal 0 1 0
    outer loop
      vertex 5.45 -2.2 9.68468
      vertex 7.26915 -2.2 8.52645
      vertex 7.13509 -2.2 8.5441
    endloop
  endfacet
  facet normal 0 1 0
    outer loop
      vertex 10.755 -2.2 9.68468
      vertex 7.40117 -2.2 8.49718
      vertex 7.26915 -2.2 8.52645
    endloop
  endfacet
  facet normal 0 1 0
    outer loop
      vertex 10.755 -2.2 9.68468
      vertex 7.53013 -2.2 8.45652
      vertex 7.40117 -2.2 8.49718
    endloop
  endfacet
  facet normal 0 1 0
    outer loop
      vertex 10.755 -2.2 9.68468
      vertex 7.65506 -2.2 8.40478
      vertex 7.53013 -2.2 8.45652
    endloop
  endfacet
  facet normal 0 1 0
    outer loop
      vertex 10.755 -2.2 9.68468
      vertex 7.775 -2.2 8.34234
      vertex 7.65506 -2.2 8.40478
    endloop
  endfacet
  facet normal 0 1 0
    outer loop
      vertex 10.755 -2.2 9.68468
      vertex 7.88904 -2.2 8.26968
      vertex 7.775 -2.2 8.34234
    endloop
  endfacet
  facet normal 0 1 0
    outer loop
      vertex 10.755 -2.2 9.68468
      vertex 7.99632 -2.2 8.18737
      vertex 7.88904 -2.2 8.26968
    endloop
  endfacet
  facet normal 0 1 0
    outer loop
      vertex 10.755 -2.2 9.68468
      vertex 8.09601 -2.2 8.09601
      vertex 7.99632 -2.2 8.18737
    endloop
  endfacet
  facet normal 0 1 0
    outer loop
      vertex 10.755 -2.2 9.68468
      vertex 8.18737 -2.2 7.99632
      vertex 8.09601 -2.2 8.09601
    endloop
  endfacet
  facet normal 0 1 0
    outer loop
      vertex 10.755 -2.2 9.68468
      vertex 8.26968 -2.2 7.88904
      vertex 8.18737 -2.2 7.99632
    endloop
  endfacet
  facet normal 0 1 0
    outer loop
      vertex 10.755 -2.2 9.68468
      vertex 8.34234 -2.2 7.775
      vertex 8.26968 -2.2 7.88904
    endloop
  endfacet
  facet normal 0 1 0
    outer loop
      vertex 10.755 -2.2 9.68468
      vertex 8.40478 -2.2 7.65506
      vertex 8.34234 -2.2 7.775
    endloop
  endfacet
  facet normal 0 1 0
    outer loop
      vertex 10.755 -2.2 9.68468
      vertex 8.45652 -2.2 7.53013
      vertex 8.40478 -2.2 7.65506
    endloop
  endfacet
  facet normal 0 1 0
    outer loop
      vertex 10.755 -2.2 9.68468
      vertex 8.49718 -2.2 7.40117
      vertex 8.45652 -2.2 7.53013
    endloop
  endfacet
  facet normal 0 1 0
    outer loop
      vertex 10.755 -2.2 9.68468
      vertex 8.52645 -2.2 7.26915
      vertex 8.49718 -2.2 7.40117
    endloop
  endfacet
  facet normal 0 1 0
    outer loop
      vertex 10.755 -2.2 9.68468
      vertex 8.5441 -2.2 7.13509
      vertex 8.52645 -2.2 7.26915
    endloop
  endfacet
  facet normal 0 1 0
    outer loop
      vertex 10.755 -2.2 9.68468
      vertex 8.55 -2.2 7
      vertex 8.5441 -2.2 7.13509
    endloop
  endfacet
  facet normal 0 1 -0
    outer loop
      vertex 10.755 -2.2 4.31532
      vertex 8.55 -2.2 7
      vertex 10.755 -2.2 9.68468
    endloop
  endfacet
  facet normal 0 1 0
    outer loop
      vertex 8.55 -2.2 7
      vertex 10.755 -2.2 4.31532
      vertex 8.5441 -2.2 6.86491
    endloop
  endfacet
  facet normal 0 1 0
    outer loop
      vertex 8.5441 -2.2 6.86491
      vertex 10.755 -2.2 4.31532
      vertex 8.52645 -2.2 6.73084
    endloop
  endfacet
  facet normal 0 1 0
    outer loop
      vertex 8.52645 -2.2 6.73084
      vertex 10.755 -2.2 4.31532
      vertex 8.49718 -2.2 6.59883
    endloop
  endfacet
  facet normal 0 1 0
    outer loop
      vertex 8.49718 -2.2 6.59883
      vertex 10.755 -2.2 4.31532
      vertex 8.45652 -2.2 6.46987
    endloop
  endfacet
  facet normal 0 1 0
    outer loop
      vertex 8.45652 -2.2 6.46987
      vertex 10.755 -2.2 4.31532
      vertex 8.40478 -2.2 6.34494
    endloop
  endfacet
  facet normal 0 1 0
    outer loop
      vertex 8.40478 -2.2 6.34494
      vertex 10.755 -2.2 4.31532
      vertex 8.34234 -2.2 6.225
    endloop
  endfacet
  facet normal 0 1 0
    outer loop
      vertex 7.26915 -2.2 5.47355
      vertex 5.45 -2.2 4.31532
      vertex 7.13509 -2.2 5.4559
    endloop
  endfacet
  facet normal 0 1 0
    outer loop
      vertex 5.45 -2.2 4.31532
      vertex 7.26915 -2.2 5.47355
      vertex 10.755 -2.2 4.31532
    endloop
  endfacet
  facet normal 0 1 0
    outer loop
      vertex 7.40117 -2.2 5.50281
      vertex 10.755 -2.2 4.31532
      vertex 7.26915 -2.2 5.47355
    endloop
  endfacet
  facet normal 0 1 0
    outer loop
      vertex 7.53013 -2.2 5.54348
      vertex 10.755 -2.2 4.31532
      vertex 7.40117 -2.2 5.50281
    endloop
  endfacet
  facet normal 0 1 0
    outer loop
      vertex 7.65506 -2.2 5.59522
      vertex 10.755 -2.2 4.31532
      vertex 7.53013 -2.2 5.54348
    endloop
  endfacet
  facet normal 0 1 0
    outer loop
      vertex 7.775 -2.2 5.65766
      vertex 10.755 -2.2 4.31532
      vertex 7.65506 -2.2 5.59522
    endloop
  endfacet
  facet normal 0 1 0
    outer loop
      vertex 7.88904 -2.2 5.73031
      vertex 10.755 -2.2 4.31532
      vertex 7.775 -2.2 5.65766
    endloop
  endfacet
  facet normal 0 1 0
    outer loop
      vertex 7.99632 -2.2 5.81263
      vertex 10.755 -2.2 4.31532
      vertex 7.88904 -2.2 5.73031
    endloop
  endfacet
  facet normal 0 1 0
    outer loop
      vertex 8.09601 -2.2 5.90398
      vertex 10.755 -2.2 4.31532
      vertex 7.99632 -2.2 5.81263
    endloop
  endfacet
  facet normal 0 1 0
    outer loop
      vertex 8.18737 -2.2 6.00368
      vertex 10.755 -2.2 4.31532
      vertex 8.09601 -2.2 5.90398
    endloop
  endfacet
  facet normal 0 1 0
    outer loop
      vertex 8.26968 -2.2 6.11096
      vertex 10.755 -2.2 4.31532
      vertex 8.18737 -2.2 6.00368
    endloop
  endfacet
  facet normal 0 1 0
    outer loop
      vertex 8.34234 -2.2 6.225
      vertex 10.755 -2.2 4.31532
      vertex 8.26968 -2.2 6.11096
    endloop
  endfacet
  facet normal 0 1 -0
    outer loop
      vertex 6.86491 -2.2 8.5441
      vertex 5.45 -2.2 9.68468
      vertex 7 -2.2 8.55
    endloop
  endfacet
  facet normal 0 1 -0
    outer loop
      vertex 6.73084 -2.2 8.52645
      vertex 5.45 -2.2 9.68468
      vertex 6.86491 -2.2 8.5441
    endloop
  endfacet
  facet normal 0 1 -0
    outer loop
      vertex 6.59883 -2.2 8.49718
      vertex 5.45 -2.2 9.68468
      vertex 6.73084 -2.2 8.52645
    endloop
  endfacet
  facet normal 0 1 -0
    outer loop
      vertex 6.46987 -2.2 8.45652
      vertex 5.45 -2.2 9.68468
      vertex 6.59883 -2.2 8.49718
    endloop
  endfacet
  facet normal 0 1 -0
    outer loop
      vertex 6.34494 -2.2 8.40478
      vertex 5.45 -2.2 9.68468
      vertex 6.46987 -2.2 8.45652
    endloop
  endfacet
  facet normal 0 1 -0
    outer loop
      vertex 6.225 -2.2 8.34234
      vertex 5.45 -2.2 9.68468
      vertex 6.34494 -2.2 8.40478
    endloop
  endfacet
  facet normal 0 1 -0
    outer loop
      vertex 6.11096 -2.2 8.26968
      vertex 5.45 -2.2 9.68468
      vertex 6.225 -2.2 8.34234
    endloop
  endfacet
  facet normal 0 1 -0
    outer loop
      vertex 6.00368 -2.2 8.18737
      vertex 5.45 -2.2 9.68468
      vertex 6.11096 -2.2 8.26968
    endloop
  endfacet
  facet normal 0 1 -0
    outer loop
      vertex 5.90398 -2.2 8.09601
      vertex 5.45 -2.2 9.68468
      vertex 6.00368 -2.2 8.18737
    endloop
  endfacet
  facet normal 0 1 -0
    outer loop
      vertex 5.81263 -2.2 7.99632
      vertex 5.45 -2.2 9.68468
      vertex 5.90398 -2.2 8.09601
    endloop
  endfacet
  facet normal 0 1 -0
    outer loop
      vertex 5.73031 -2.2 7.88904
      vertex 5.45 -2.2 9.68468
      vertex 5.81263 -2.2 7.99632
    endloop
  endfacet
  facet normal 0 1 -0
    outer loop
      vertex 5.65766 -2.2 7.775
      vertex 5.45 -2.2 9.68468
      vertex 5.73031 -2.2 7.88904
    endloop
  endfacet
  facet normal 0 1 0
    outer loop
      vertex 3.9 -2.2 7
      vertex 5.65766 -2.2 7.775
      vertex 5.59522 -2.2 7.65506
    endloop
  endfacet
  facet normal 0 1 0
    outer loop
      vertex 3.9 -2.2 7
      vertex 5.59522 -2.2 7.65506
      vertex 5.54348 -2.2 7.53013
    endloop
  endfacet
  facet normal 0 1 0
    outer loop
      vertex 3.9 -2.2 7
      vertex 5.54348 -2.2 7.53013
      vertex 5.50281 -2.2 7.40117
    endloop
  endfacet
  facet normal 0 1 0
    outer loop
      vertex 3.9 -2.2 7
      vertex 5.50281 -2.2 7.40117
      vertex 5.47355 -2.2 7.26915
    endloop
  endfacet
  facet normal 0 1 0
    outer loop
      vertex 3.9 -2.2 7
      vertex 5.47355 -2.2 7.26915
      vertex 5.4559 -2.2 7.13509
    endloop
  endfacet
  facet normal 0 1 0
    outer loop
      vertex 3.9 -2.2 7
      vertex 5.4559 -2.2 7.13509
      vertex 5.45 -2.2 7
    endloop
  endfacet
  facet normal 0 1 0
    outer loop
      vertex 5.65766 -2.2 7.775
      vertex 3.9 -2.2 7
      vertex 5.45 -2.2 9.68468
    endloop
  endfacet
  facet normal 0 1 0
    outer loop
      vertex 5.4559 -2.2 6.86491
      vertex 3.9 -2.2 7
      vertex 5.45 -2.2 7
    endloop
  endfacet
  facet normal 0 1 0
    outer loop
      vertex 5.47355 -2.2 6.73084
      vertex 3.9 -2.2 7
      vertex 5.4559 -2.2 6.86491
    endloop
  endfacet
  facet normal 0 1 0
    outer loop
      vertex 5.50281 -2.2 6.59883
      vertex 3.9 -2.2 7
      vertex 5.47355 -2.2 6.73084
    endloop
  endfacet
  facet normal 0 1 0
    outer loop
      vertex 5.54348 -2.2 6.46987
      vertex 3.9 -2.2 7
      vertex 5.50281 -2.2 6.59883
    endloop
  endfacet
  facet normal 0 1 0
    outer loop
      vertex 5.59522 -2.2 6.34494
      vertex 3.9 -2.2 7
      vertex 5.54348 -2.2 6.46987
    endloop
  endfacet
  facet normal 0 1 0
    outer loop
      vertex 5.65766 -2.2 6.225
      vertex 3.9 -2.2 7
      vertex 5.59522 -2.2 6.34494
    endloop
  endfacet
  facet normal 0 1 0
    outer loop
      vertex 5.45 -2.2 4.31532
      vertex 5.65766 -2.2 6.225
      vertex 5.73031 -2.2 6.11096
    endloop
  endfacet
  facet normal 0 1 0
    outer loop
      vertex 5.45 -2.2 4.31532
      vertex 5.73031 -2.2 6.11096
      vertex 5.81263 -2.2 6.00368
    endloop
  endfacet
  facet normal 0 1 0
    outer loop
      vertex 5.45 -2.2 4.31532
      vertex 5.81263 -2.2 6.00368
      vertex 5.90398 -2.2 5.90398
    endloop
  endfacet
  facet normal 0 1 0
    outer loop
      vertex 5.45 -2.2 4.31532
      vertex 5.90398 -2.2 5.90398
      vertex 6.00368 -2.2 5.81263
    endloop
  endfacet
  facet normal 0 1 0
    outer loop
      vertex 5.45 -2.2 4.31532
      vertex 6.00368 -2.2 5.81263
      vertex 6.11096 -2.2 5.73031
    endloop
  endfacet
  facet normal 0 1 0
    outer loop
      vertex 5.45 -2.2 4.31532
      vertex 6.11096 -2.2 5.73031
      vertex 6.225 -2.2 5.65766
    endloop
  endfacet
  facet normal 0 1 0
    outer loop
      vertex 7.13509 -2.2 5.4559
      vertex 5.45 -2.2 4.31532
      vertex 7 -2.2 5.45
    endloop
  endfacet
  facet normal 0 1 0
    outer loop
      vertex 7 -2.2 5.45
      vertex 5.45 -2.2 4.31532
      vertex 6.86491 -2.2 5.4559
    endloop
  endfacet
  facet normal 0 1 0
    outer loop
      vertex 6.86491 -2.2 5.4559
      vertex 5.45 -2.2 4.31532
      vertex 6.73084 -2.2 5.47355
    endloop
  endfacet
  facet normal 0 1 0
    outer loop
      vertex 5.65766 -2.2 6.225
      vertex 5.45 -2.2 4.31532
      vertex 3.9 -2.2 7
    endloop
  endfacet
  facet normal 0 1 0
    outer loop
      vertex 6.34494 -2.2 5.59522
      vertex 5.45 -2.2 4.31532
      vertex 6.225 -2.2 5.65766
    endloop
  endfacet
  facet normal 0 1 0
    outer loop
      vertex 6.46987 -2.2 5.54348
      vertex 5.45 -2.2 4.31532
      vertex 6.34494 -2.2 5.59522
    endloop
  endfacet
  facet normal 0 1 0
    outer loop
      vertex 6.59883 -2.2 5.50281
      vertex 5.45 -2.2 4.31532
      vertex 6.46987 -2.2 5.54348
    endloop
  endfacet
  facet normal 0 1 0
    outer loop
      vertex 6.73084 -2.2 5.47355
      vertex 5.45 -2.2 4.31532
      vertex 6.59883 -2.2 5.50281
    endloop
  endfacet
  facet normal -0 0 1
    outer loop
      vertex 8.55 -1 4.31532
      vertex 10.755 -2.2 4.31532
      vertex 10.755 -1 4.31532
    endloop
  endfacet
  facet normal 0 0 1
    outer loop
      vertex 5.45 -2.2 4.31532
      vertex 8.55 -1 4.31532
      vertex 5.45 -1 4.31532
    endloop
  endfacet
  facet normal 0 0 1
    outer loop
      vertex 8.55 -1 4.31532
      vertex 5.45 -2.2 4.31532
      vertex 10.755 -2.2 4.31532
    endloop
  endfacet
  facet normal 0.866026 -0 0.5
    outer loop
      vertex 3.9 -2.2 7
      vertex 5.45 -1 4.31532
      vertex 3.9 -1 7
    endloop
  endfacet
  facet normal 0.866026 0 0.5
    outer loop
      vertex 5.45 -1 4.31532
      vertex 3.9 -2.2 7
      vertex 5.45 -2.2 4.31532
    endloop
  endfacet
  facet normal 0 0 -1
    outer loop
      vertex 10.755 -2.2 9.68468
      vertex 8.55 -1 9.68468
      vertex 10.755 -1 9.68468
    endloop
  endfacet
  facet normal 0 0 -1
    outer loop
      vertex 5.45 -2.2 9.68468
      vertex 8.55 -1 9.68468
      vertex 10.755 -2.2 9.68468
    endloop
  endfacet
  facet normal -0 0 -1
    outer loop
      vertex 8.55 -1 9.68468
      vertex 5.45 -2.2 9.68468
      vertex 5.45 -1 9.68468
    endloop
  endfacet
  facet normal 1 0 0
    outer loop
      vertex 5.45 -1 9.68468
      vertex 5.45 -1.90735e-07 10.755
      vertex 5.45 -1 10.755
    endloop
  endfacet
  facet normal 1 0 0
    outer loop
      vertex 5.45 -1 4.31532
      vertex 5.45 -1.90735e-07 10.755
      vertex 5.45 -1 9.68468
    endloop
  endfacet
  facet normal 1 0 0
    outer loop
      vertex 5.45 -1.90735e-07 10.755
      vertex 5.45 -1 4.31532
      vertex 5.45 -1.90735e-07 0
    endloop
  endfacet
  facet normal 1 0 0
    outer loop
      vertex 5.45 -1.90735e-07 0
      vertex 5.45 -1 4.31532
      vertex 5.45 -1 0
    endloop
  endfacet
  facet normal 0 1 -0
    outer loop
      vertex 5.45 -1.90735e-07 0
      vertex 0 -1.90735e-07 10.755
      vertex 5.45 -1.90735e-07 10.755
    endloop
  endfacet
  facet normal 0 1 0
    outer loop
      vertex 0 -1.90735e-07 10.755
      vertex 5.45 -1.90735e-07 0
      vertex 0 -1.90735e-07 0
    endloop
  endfacet
  facet normal 0 1 -0
    outer loop
      vertex 10.755 -1.90735e-07 0
      vertex 8.55 -1.90735e-07 10.755
      vertex 10.755 -1.90735e-07 10.755
    endloop
  endfacet
  facet normal 0 1 0
    outer loop
      vertex 8.55 -1.90735e-07 10.755
      vertex 10.755 -1.90735e-07 0
      vertex 8.55 -1.90735e-07 0
    endloop
  endfacet
  facet normal -1 0 0
    outer loop
      vertex 8.55 -1 4.31532
      vertex 8.55 -1.90735e-07 0
      vertex 8.55 -1 0
    endloop
  endfacet
  facet normal -1 0 0
    outer loop
      vertex 8.55 -1.90735e-07 0
      vertex 8.55 -1 4.31532
      vertex 8.55 -1.90735e-07 10.755
    endloop
  endfacet
  facet normal -1 0 0
    outer loop
      vertex 8.55 -1 9.68468
      vertex 8.55 -1.90735e-07 10.755
      vertex 8.55 -1 4.31532
    endloop
  endfacet
  facet normal -1 -0 0
    outer loop
      vertex 8.55 -1.90735e-07 10.755
      vertex 8.55 -1 9.68468
      vertex 8.55 -1 10.755
    endloop
  endfacet
  facet normal 1 0 0
    outer loop
      vertex 17 -14 17
      vertex 17 -17 17
      vertex 17 -14 0
    endloop
  endfacet
  facet normal 1 -0 0
    outer loop
      vertex 17 -14 0
      vertex 17 3 -3
      vertex 17 3 0
    endloop
  endfacet
  facet normal 1 0 0
    outer loop
      vertex 17 -14 0
      vertex 17 -17 -3
      vertex 17 3 -3
    endloop
  endfacet
  facet normal 1 0 0
    outer loop
      vertex 17 -17 -3
      vertex 17 -14 0
      vertex 17 -17 17
    endloop
  endfacet
  facet normal 0 0 1
    outer loop
      vertex 0 3 17
      vertex -3 3 17
      vertex 0 -14 17
    endloop
  endfacet
  facet normal -0 0 1
    outer loop
      vertex 0 -14 17
      vertex 17 -17 17
      vertex 17 -14 17
    endloop
  endfacet
  facet normal 0 0 1
    outer loop
      vertex 0 -14 17
      vertex -3 -17 17
      vertex 17 -17 17
    endloop
  endfacet
  facet normal 0 0 1
    outer loop
      vertex -3 -17 17
      vertex 0 -14 17
      vertex -3 3 17
    endloop
  endfacet
  facet normal 0 0 -1
    outer loop
      vertex -3 -17 -3
      vertex 17 3 -3
      vertex 17 -17 -3
    endloop
  endfacet
  facet normal -0 0 -1
    outer loop
      vertex 17 3 -3
      vertex -3 -17 -3
      vertex -3 3 -3
    endloop
  endfacet
  facet normal -1 0 0
    outer loop
      vertex -3 -17 -3
      vertex -3 3 17
      vertex -3 3 -3
    endloop
  endfacet
  facet normal -1 -0 0
    outer loop
      vertex -3 3 17
      vertex -3 -17 -3
      vertex -3 -17 17
    endloop
  endfacet
  facet normal 0 1 0
    outer loop
      vertex 17 3 0
      vertex 17 3 -3
      vertex 0 3 0
    endloop
  endfacet
  facet normal 0 1 -0
    outer loop
      vertex 0 3 0
      vertex -3 3 17
      vertex 0 3 17
    endloop
  endfacet
  facet normal 0 1 0
    outer loop
      vertex 0 3 0
      vertex -3 3 -3
      vertex -3 3 17
    endloop
  endfacet
  facet normal 0 1 0
    outer loop
      vertex -3 3 -3
      vertex 0 3 0
      vertex 17 3 -3
    endloop
  endfacet
  facet normal 0 -1 0
    outer loop
      vertex -3 -17 -3
      vertex 17 -17 17
      vertex -3 -17 17
    endloop
  endfacet
  facet normal 0 -1 -0
    outer loop
      vertex 17 -17 17
      vertex -3 -17 -3
      vertex 17 -17 -3
    endloop
  endfacet
  facet normal 0 1 -0
    outer loop
      vertex 17 -14 0
      vertex 0 -14 17
      vertex 17 -14 17
    endloop
  endfacet
  facet normal 0 1 0
    outer loop
      vertex 0 -14 17
      vertex 17 -14 0
      vertex 0 -14 0
    endloop
  endfacet
endsolid OpenSCAD_Model
