solid OpenSCAD_Model
  facet normal 0 1 -0
    outer loop
      vertex 20 0 -20
      vertex 0 0 0
      vertex 20 0 0
    endloop
  endfacet
  facet normal 0 1 0
    outer loop
      vertex 0 0 0
      vertex 20 0 -20
      vertex 0 0 -20
    endloop
  endfacet
  facet normal -1 0 0
    outer loop
      vertex 0 -20 -20
      vertex 0 0 0
      vertex 0 0 -20
    endloop
  endfacet
  facet normal -1 -0 0
    outer loop
      vertex 0 0 0
      vertex 0 -20 -20
      vertex 0 -20 0
    endloop
  endfacet
  facet normal 0 -1 0
    outer loop
      vertex 13.755 -3 -7.45
      vertex 20 -3 -7
      vertex 13.755 -3 -7
    endloop
  endfacet
  facet normal 0 -1 0
    outer loop
      vertex 20 -3 -20
      vertex 13.755 -3 -7.45
      vertex 3 -3 -18.205
    endloop
  endfacet
  facet normal 0 -1 0
    outer loop
      vertex 20 -3 -20
      vertex 3 -3 -18.205
      vertex 3 -3 -20
    endloop
  endfacet
  facet normal 0 -1 0
    outer loop
      vertex 13.755 -3 -7.45
      vertex 20 -3 -20
      vertex 20 -3 -7
    endloop
  endfacet
  facet normal 0 -1 0
    outer loop
      vertex 7 -3 -2
      vertex 20 -3 0
      vertex 7 -3 0
    endloop
  endfacet
  facet normal 0 -1 -0
    outer loop
      vertex 20 -3 0
      vertex 7 -3 -2
      vertex 20 -3 -2
    endloop
  endfacet
  facet normal 0 0 1
    outer loop
      vertex 20 0 0
      vertex 7 -3 0
      vertex 20 -3 0
    endloop
  endfacet
  facet normal -0 0 1
    outer loop
      vertex 0 0 0
      vertex 7 -3 0
      vertex 20 0 0
    endloop
  endfacet
  facet normal 0 0 1
    outer loop
      vertex 7 -3 0
      vertex 0 0 0
      vertex 6.65138 -3.01523 0
    endloop
  endfacet
  facet normal 0 0 1
    outer loop
      vertex 6.65138 -3.01523 0
      vertex 0 0 0
      vertex 6.3054 -3.06078 0
    endloop
  endfacet
  facet normal 0 0 1
    outer loop
      vertex 6.3054 -3.06078 0
      vertex 0 0 0
      vertex 5.96472 -3.13629 0
    endloop
  endfacet
  facet normal 0 0 1
    outer loop
      vertex 0 0 0
      vertex 5.63191 -3.24123 0
      vertex 5.96472 -3.13629 0
    endloop
  endfacet
  facet normal 0 0 1
    outer loop
      vertex 0 0 0
      vertex 5.30952 -3.37477 0
      vertex 5.63191 -3.24123 0
    endloop
  endfacet
  facet normal 0 0 1
    outer loop
      vertex 0 0 0
      vertex 5 -3.5359 0
      vertex 5.30952 -3.37477 0
    endloop
  endfacet
  facet normal 0 0 1
    outer loop
      vertex 0 0 0
      vertex 4.70569 -3.72339 0
      vertex 5 -3.5359 0
    endloop
  endfacet
  facet normal 0 0 1
    outer loop
      vertex 0 0 0
      vertex 4.42885 -3.93582 0
      vertex 4.70569 -3.72339 0
    endloop
  endfacet
  facet normal 0 0 1
    outer loop
      vertex 0 0 0
      vertex 4.17157 -4.17157 0
      vertex 4.42885 -3.93582 0
    endloop
  endfacet
  facet normal 0 0 1
    outer loop
      vertex 0 0 0
      vertex 3.93582 -4.42885 0
      vertex 4.17157 -4.17157 0
    endloop
  endfacet
  facet normal 0 0 1
    outer loop
      vertex 0 0 0
      vertex 3.72339 -4.70569 0
      vertex 3.93582 -4.42885 0
    endloop
  endfacet
  facet normal 0 0 1
    outer loop
      vertex 0 0 0
      vertex 3.5359 -5 0
      vertex 3.72339 -4.70569 0
    endloop
  endfacet
  facet normal 0 0 1
    outer loop
      vertex 0 0 0
      vertex 3.37477 -5.30952 0
      vertex 3.5359 -5 0
    endloop
  endfacet
  facet normal 0 0 1
    outer loop
      vertex 0 0 0
      vertex 3.24123 -5.63191 0
      vertex 3.37477 -5.30952 0
    endloop
  endfacet
  facet normal 0 0 1
    outer loop
      vertex 0 0 0
      vertex 3.13629 -5.96472 0
      vertex 3.24123 -5.63191 0
    endloop
  endfacet
  facet normal 0 0 1
    outer loop
      vertex 0 0 0
      vertex 3.06078 -6.3054 0
      vertex 3.13629 -5.96472 0
    endloop
  endfacet
  facet normal 0 0 1
    outer loop
      vertex 0 0 0
      vertex 3.01523 -6.65138 0
      vertex 3.06078 -6.3054 0
    endloop
  endfacet
  facet normal 0 0 1
    outer loop
      vertex 0 0 0
      vertex 3 -7 0
      vertex 3.01523 -6.65138 0
    endloop
  endfacet
  facet normal 0 0 1
    outer loop
      vertex 0 -20 0
      vertex 3 -7 0
      vertex 0 0 0
    endloop
  endfacet
  facet normal 0 0 1
    outer loop
      vertex 3 -7 0
      vertex 0 -20 0
      vertex 3 -20 0
    endloop
  endfacet
  facet normal 1 0 0
    outer loop
      vertex 5 -5 -2
      vertex 5 -13.755 -4.45
      vertex 5 -5 -4.45
    endloop
  endfacet
  facet normal 1 -0 0
    outer loop
      vertex 5 -20 -2
      vertex 5 -13.755 -4.45
      vertex 5 -5 -2
    endloop
  endfacet
  facet normal 1 0 0
    outer loop
      vertex 5 -20 -5
      vertex 5 -13.755 -4.45
      vertex 5 -20 -2
    endloop
  endfacet
  facet normal 1 0 0
    outer loop
      vertex 5 -13.755 -4.45
      vertex 5 -20 -5
      vertex 5 -13.755 -5
    endloop
  endfacet
  facet normal 1 0 0
    outer loop
      vertex 3 -13.755 -7
      vertex 3 -20 -7
      vertex 3 -13.755 -18.205
    endloop
  endfacet
  facet normal 1 -0 0
    outer loop
      vertex 3 -13.755 -18.205
      vertex 3 -3 -20
      vertex 3 -3 -18.205
    endloop
  endfacet
  facet normal 1 0 0
    outer loop
      vertex 3 -13.755 -18.205
      vertex 3 -20 -20
      vertex 3 -3 -20
    endloop
  endfacet
  facet normal 1 0 0
    outer loop
      vertex 3 -20 -20
      vertex 3 -13.755 -18.205
      vertex 3 -20 -7
    endloop
  endfacet
  facet normal 1 -0 0
    outer loop
      vertex 3 -20 0
      vertex 3 -7 -2
      vertex 3 -7 0
    endloop
  endfacet
  facet normal 1 0 0
    outer loop
      vertex 3 -7 -2
      vertex 3 -20 0
      vertex 3 -20 -2
    endloop
  endfacet
  facet normal -0 0 1
    outer loop
      vertex 7 -3 -2
      vertex 20 -5 -2
      vertex 20 -3 -2
    endloop
  endfacet
  facet normal 0 0 1
    outer loop
      vertex 5 -5 -2
      vertex 7 -3 -2
      vertex 6.65138 -3.01523 -2
    endloop
  endfacet
  facet normal 0 0 1
    outer loop
      vertex 5 -5 -2
      vertex 6.65138 -3.01523 -2
      vertex 6.3054 -3.06078 -2
    endloop
  endfacet
  facet normal 0 0 1
    outer loop
      vertex 5 -5 -2
      vertex 6.3054 -3.06078 -2
      vertex 5.96472 -3.13629 -2
    endloop
  endfacet
  facet normal 0 0 1
    outer loop
      vertex 5 -5 -2
      vertex 5.96472 -3.13629 -2
      vertex 5.63191 -3.24123 -2
    endloop
  endfacet
  facet normal 0 0 1
    outer loop
      vertex 5 -5 -2
      vertex 5.63191 -3.24123 -2
      vertex 5.30952 -3.37477 -2
    endloop
  endfacet
  facet normal 0 0 1
    outer loop
      vertex 5 -5 -2
      vertex 5.30952 -3.37477 -2
      vertex 5 -3.5359 -2
    endloop
  endfacet
  facet normal 0 0 1
    outer loop
      vertex 7 -3 -2
      vertex 5 -5 -2
      vertex 20 -5 -2
    endloop
  endfacet
  facet normal -0 0 1
    outer loop
      vertex 4.70569 -3.72339 -2
      vertex 5 -5 -2
      vertex 5 -3.5359 -2
    endloop
  endfacet
  facet normal -0 0 1
    outer loop
      vertex 4.42885 -3.93582 -2
      vertex 5 -5 -2
      vertex 4.70569 -3.72339 -2
    endloop
  endfacet
  facet normal -0 0 1
    outer loop
      vertex 4.17157 -4.17157 -2
      vertex 5 -5 -2
      vertex 4.42885 -3.93582 -2
    endloop
  endfacet
  facet normal -0 0 1
    outer loop
      vertex 3.93582 -4.42885 -2
      vertex 5 -5 -2
      vertex 4.17157 -4.17157 -2
    endloop
  endfacet
  facet normal -0 0 1
    outer loop
      vertex 3.72339 -4.70569 -2
      vertex 5 -5 -2
      vertex 3.93582 -4.42885 -2
    endloop
  endfacet
  facet normal 0 0 1
    outer loop
      vertex 3.5359 -5 -2
      vertex 5 -5 -2
      vertex 3.72339 -4.70569 -2
    endloop
  endfacet
  facet normal 0 0 1
    outer loop
      vertex 3.37477 -5.30952 -2
      vertex 5 -5 -2
      vertex 3.5359 -5 -2
    endloop
  endfacet
  facet normal 0 0 1
    outer loop
      vertex 3.24123 -5.63191 -2
      vertex 5 -5 -2
      vertex 3.37477 -5.30952 -2
    endloop
  endfacet
  facet normal 0 0 1
    outer loop
      vertex 3.13629 -5.96472 -2
      vertex 5 -5 -2
      vertex 3.24123 -5.63191 -2
    endloop
  endfacet
  facet normal 0 0 1
    outer loop
      vertex 3.06078 -6.3054 -2
      vertex 5 -5 -2
      vertex 3.13629 -5.96472 -2
    endloop
  endfacet
  facet normal 0 0 1
    outer loop
      vertex 3.01523 -6.65138 -2
      vertex 5 -5 -2
      vertex 3.06078 -6.3054 -2
    endloop
  endfacet
  facet normal 0 0 1
    outer loop
      vertex 5 -5 -2
      vertex 3.01523 -6.65138 -2
      vertex 3 -7 -2
    endloop
  endfacet
  facet normal 0 0 1
    outer loop
      vertex 5 -5 -2
      vertex 3 -7 -2
      vertex 5 -20 -2
    endloop
  endfacet
  facet normal 0 0 1
    outer loop
      vertex 5 -20 -2
      vertex 3 -7 -2
      vertex 3 -20 -2
    endloop
  endfacet
  facet normal 0.707107 0 -0.707107
    outer loop
      vertex 5 -20 -5
      vertex 3 -13.755 -7
      vertex 5 -13.755 -5
    endloop
  endfacet
  facet normal 0.707107 0 -0.707107
    outer loop
      vertex 3 -13.755 -7
      vertex 5 -20 -5
      vertex 3 -20 -7
    endloop
  endfacet
  facet normal 0 -1 0
    outer loop
      vertex 13.755 -5 -4.45
      vertex 5 -5 -2
      vertex 5 -5 -4.45
    endloop
  endfacet
  facet normal 0 -1 0
    outer loop
      vertex 5 -5 -2
      vertex 13.755 -5 -4.45
      vertex 20 -5 -2
    endloop
  endfacet
  facet normal 0 -1 0
    outer loop
      vertex 20 -5 -5
      vertex 13.755 -5 -4.45
      vertex 13.755 -5 -5
    endloop
  endfacet
  facet normal 0 -1 0
    outer loop
      vertex 13.755 -5 -4.45
      vertex 20 -5 -5
      vertex 20 -5 -2
    endloop
  endfacet
  facet normal 0 -0.707107 -0.707107
    outer loop
      vertex 13.755 -3 -7
      vertex 20 -5 -5
      vertex 13.755 -5 -5
    endloop
  endfacet
  facet normal 0 -0.707107 -0.707107
    outer loop
      vertex 20 -5 -5
      vertex 13.755 -3 -7
      vertex 20 -3 -7
    endloop
  endfacet
  facet normal -0 0 1
    outer loop
      vertex 11.5441 -9.86491 -4.45
      vertex 13.755 -13.755 -4.45
      vertex 13.755 -5 -4.45
    endloop
  endfacet
  facet normal 0 0 1
    outer loop
      vertex 13.755 -13.755 -4.45
      vertex 11.5441 -9.86491 -4.45
      vertex 11.55 -10 -4.45
    endloop
  endfacet
  facet normal 0 0 1
    outer loop
      vertex 13.755 -5 -4.45
      vertex 11.5265 -9.73084 -4.45
      vertex 11.5441 -9.86491 -4.45
    endloop
  endfacet
  facet normal 0 0 1
    outer loop
      vertex 13.755 -5 -4.45
      vertex 11.4972 -9.59883 -4.45
      vertex 11.5265 -9.73084 -4.45
    endloop
  endfacet
  facet normal 0 0 1
    outer loop
      vertex 13.755 -5 -4.45
      vertex 11.4565 -9.46987 -4.45
      vertex 11.4972 -9.59883 -4.45
    endloop
  endfacet
  facet normal 0 0 1
    outer loop
      vertex 13.755 -5 -4.45
      vertex 11.4048 -9.34494 -4.45
      vertex 11.4565 -9.46987 -4.45
    endloop
  endfacet
  facet normal 0 0 1
    outer loop
      vertex 13.755 -5 -4.45
      vertex 11.3423 -9.225 -4.45
      vertex 11.4048 -9.34494 -4.45
    endloop
  endfacet
  facet normal 0 0 1
    outer loop
      vertex 13.755 -5 -4.45
      vertex 11.2697 -9.11096 -4.45
      vertex 11.3423 -9.225 -4.45
    endloop
  endfacet
  facet normal 0 0 1
    outer loop
      vertex 13.755 -5 -4.45
      vertex 11.1874 -9.00368 -4.45
      vertex 11.2697 -9.11096 -4.45
    endloop
  endfacet
  facet normal 0 0 1
    outer loop
      vertex 13.755 -5 -4.45
      vertex 11.096 -8.90398 -4.45
      vertex 11.1874 -9.00368 -4.45
    endloop
  endfacet
  facet normal 0 0 1
    outer loop
      vertex 13.755 -5 -4.45
      vertex 10.9963 -8.81263 -4.45
      vertex 11.096 -8.90398 -4.45
    endloop
  endfacet
  facet normal 0 0 1
    outer loop
      vertex 13.755 -5 -4.45
      vertex 10.889 -8.73031 -4.45
      vertex 10.9963 -8.81263 -4.45
    endloop
  endfacet
  facet normal 0 0 1
    outer loop
      vertex 13.755 -5 -4.45
      vertex 10.775 -8.65766 -4.45
      vertex 10.889 -8.73031 -4.45
    endloop
  endfacet
  facet normal 0 0 1
    outer loop
      vertex 13.755 -5 -4.45
      vertex 10.6551 -8.59522 -4.45
      vertex 10.775 -8.65766 -4.45
    endloop
  endfacet
  facet normal 0 0 1
    outer loop
      vertex 13.755 -5 -4.45
      vertex 10.5301 -8.54348 -4.45
      vertex 10.6551 -8.59522 -4.45
    endloop
  endfacet
  facet normal 0 0 1
    outer loop
      vertex 13.755 -5 -4.45
      vertex 10.4012 -8.50281 -4.45
      vertex 10.5301 -8.54348 -4.45
    endloop
  endfacet
  facet normal 0 0 1
    outer loop
      vertex 13.755 -5 -4.45
      vertex 10.2692 -8.47355 -4.45
      vertex 10.4012 -8.50281 -4.45
    endloop
  endfacet
  facet normal 0 0 1
    outer loop
      vertex 13.755 -5 -4.45
      vertex 10.1351 -8.4559 -4.45
      vertex 10.2692 -8.47355 -4.45
    endloop
  endfacet
  facet normal 0 0 1
    outer loop
      vertex 13.755 -5 -4.45
      vertex 10 -8.45 -4.45
      vertex 10.1351 -8.4559 -4.45
    endloop
  endfacet
  facet normal 0 0 1
    outer loop
      vertex 13.755 -5 -4.45
      vertex 9.86491 -8.4559 -4.45
      vertex 10 -8.45 -4.45
    endloop
  endfacet
  facet normal -0 0 1
    outer loop
      vertex 5 -5 -4.45
      vertex 9.86491 -8.4559 -4.45
      vertex 13.755 -5 -4.45
    endloop
  endfacet
  facet normal 0 0 1
    outer loop
      vertex 9.86491 -8.4559 -4.45
      vertex 5 -5 -4.45
      vertex 9.73084 -8.47355 -4.45
    endloop
  endfacet
  facet normal 0 0 1
    outer loop
      vertex 9.73084 -8.47355 -4.45
      vertex 5 -5 -4.45
      vertex 9.59883 -8.50281 -4.45
    endloop
  endfacet
  facet normal 0 0 1
    outer loop
      vertex 9.59883 -8.50281 -4.45
      vertex 5 -5 -4.45
      vertex 9.46987 -8.54348 -4.45
    endloop
  endfacet
  facet normal 0 0 1
    outer loop
      vertex 9.46987 -8.54348 -4.45
      vertex 5 -5 -4.45
      vertex 9.34494 -8.59522 -4.45
    endloop
  endfacet
  facet normal 0 0 1
    outer loop
      vertex 9.34494 -8.59522 -4.45
      vertex 5 -5 -4.45
      vertex 9.225 -8.65766 -4.45
    endloop
  endfacet
  facet normal 0 0 1
    outer loop
      vertex 9.225 -8.65766 -4.45
      vertex 5 -5 -4.45
      vertex 9.11096 -8.73031 -4.45
    endloop
  endfacet
  facet normal 0 0 1
    outer loop
      vertex 5 -13.755 -4.45
      vertex 8.4559 -9.86491 -4.45
      vertex 5 -5 -4.45
    endloop
  endfacet
  facet normal 0 0 1
    outer loop
      vertex 8.47355 -9.73084 -4.45
      vertex 5 -5 -4.45
      vertex 8.4559 -9.86491 -4.45
    endloop
  endfacet
  facet normal 0 0 1
    outer loop
      vertex 8.50281 -9.59883 -4.45
      vertex 5 -5 -4.45
      vertex 8.47355 -9.73084 -4.45
    endloop
  endfacet
  facet normal 0 0 1
    outer loop
      vertex 8.54348 -9.46987 -4.45
      vertex 5 -5 -4.45
      vertex 8.50281 -9.59883 -4.45
    endloop
  endfacet
  facet normal 0 0 1
    outer loop
      vertex 8.59522 -9.34494 -4.45
      vertex 5 -5 -4.45
      vertex 8.54348 -9.46987 -4.45
    endloop
  endfacet
  facet normal 0 0 1
    outer loop
      vertex 8.65766 -9.225 -4.45
      vertex 5 -5 -4.45
      vertex 8.59522 -9.34494 -4.45
    endloop
  endfacet
  facet normal 0 0 1
    outer loop
      vertex 8.73031 -9.11096 -4.45
      vertex 5 -5 -4.45
      vertex 8.65766 -9.225 -4.45
    endloop
  endfacet
  facet normal 0 0 1
    outer loop
      vertex 8.81263 -9.00368 -4.45
      vertex 5 -5 -4.45
      vertex 8.73031 -9.11096 -4.45
    endloop
  endfacet
  facet normal 0 0 1
    outer loop
      vertex 8.90398 -8.90398 -4.45
      vertex 5 -5 -4.45
      vertex 8.81263 -9.00368 -4.45
    endloop
  endfacet
  facet normal 0 0 1
    outer loop
      vertex 9.00368 -8.81263 -4.45
      vertex 5 -5 -4.45
      vertex 8.90398 -8.90398 -4.45
    endloop
  endfacet
  facet normal 0 0 1
    outer loop
      vertex 9.11096 -8.73031 -4.45
      vertex 5 -5 -4.45
      vertex 9.00368 -8.81263 -4.45
    endloop
  endfacet
  facet normal -0 0 1
    outer loop
      vertex 11.5441 -10.1351 -4.45
      vertex 13.755 -13.755 -4.45
      vertex 11.55 -10 -4.45
    endloop
  endfacet
  facet normal -0 0 1
    outer loop
      vertex 11.5265 -10.2692 -4.45
      vertex 13.755 -13.755 -4.45
      vertex 11.5441 -10.1351 -4.45
    endloop
  endfacet
  facet normal -0 0 1
    outer loop
      vertex 11.4972 -10.4012 -4.45
      vertex 13.755 -13.755 -4.45
      vertex 11.5265 -10.2692 -4.45
    endloop
  endfacet
  facet normal -0 0 1
    outer loop
      vertex 11.4565 -10.5301 -4.45
      vertex 13.755 -13.755 -4.45
      vertex 11.4972 -10.4012 -4.45
    endloop
  endfacet
  facet normal -0 0 1
    outer loop
      vertex 11.4048 -10.6551 -4.45
      vertex 13.755 -13.755 -4.45
      vertex 11.4565 -10.5301 -4.45
    endloop
  endfacet
  facet normal -0 0 1
    outer loop
      vertex 11.3423 -10.775 -4.45
      vertex 13.755 -13.755 -4.45
      vertex 11.4048 -10.6551 -4.45
    endloop
  endfacet
  facet normal -0 0 1
    outer loop
      vertex 11.2697 -10.889 -4.45
      vertex 13.755 -13.755 -4.45
      vertex 11.3423 -10.775 -4.45
    endloop
  endfacet
  facet normal -0 0 1
    outer loop
      vertex 11.1874 -10.9963 -4.45
      vertex 13.755 -13.755 -4.45
      vertex 11.2697 -10.889 -4.45
    endloop
  endfacet
  facet normal -0 0 1
    outer loop
      vertex 11.096 -11.096 -4.45
      vertex 13.755 -13.755 -4.45
      vertex 11.1874 -10.9963 -4.45
    endloop
  endfacet
  facet normal -0 0 1
    outer loop
      vertex 10.9963 -11.1874 -4.45
      vertex 13.755 -13.755 -4.45
      vertex 11.096 -11.096 -4.45
    endloop
  endfacet
  facet normal -0 0 1
    outer loop
      vertex 10.889 -11.2697 -4.45
      vertex 13.755 -13.755 -4.45
      vertex 10.9963 -11.1874 -4.45
    endloop
  endfacet
  facet normal -0 0 1
    outer loop
      vertex 10.775 -11.3423 -4.45
      vertex 13.755 -13.755 -4.45
      vertex 10.889 -11.2697 -4.45
    endloop
  endfacet
  facet normal -0 0 1
    outer loop
      vertex 10.6551 -11.4048 -4.45
      vertex 13.755 -13.755 -4.45
      vertex 10.775 -11.3423 -4.45
    endloop
  endfacet
  facet normal -0 0 1
    outer loop
      vertex 10.5301 -11.4565 -4.45
      vertex 13.755 -13.755 -4.45
      vertex 10.6551 -11.4048 -4.45
    endloop
  endfacet
  facet normal -0 0 1
    outer loop
      vertex 10.4012 -11.4972 -4.45
      vertex 13.755 -13.755 -4.45
      vertex 10.5301 -11.4565 -4.45
    endloop
  endfacet
  facet normal -0 0 1
    outer loop
      vertex 10.2692 -11.5265 -4.45
      vertex 13.755 -13.755 -4.45
      vertex 10.4012 -11.4972 -4.45
    endloop
  endfacet
  facet normal -0 0 1
    outer loop
      vertex 10.1351 -11.5441 -4.45
      vertex 13.755 -13.755 -4.45
      vertex 10.2692 -11.5265 -4.45
    endloop
  endfacet
  facet normal -0 0 1
    outer loop
      vertex 10 -11.55 -4.45
      vertex 13.755 -13.755 -4.45
      vertex 10.1351 -11.5441 -4.45
    endloop
  endfacet
  facet normal 0 0 1
    outer loop
      vertex 9.86491 -11.5441 -4.45
      vertex 13.755 -13.755 -4.45
      vertex 10 -11.55 -4.45
    endloop
  endfacet
  facet normal 0 0 1
    outer loop
      vertex 5 -13.755 -4.45
      vertex 9.86491 -11.5441 -4.45
      vertex 9.73084 -11.5265 -4.45
    endloop
  endfacet
  facet normal 0 0 1
    outer loop
      vertex 5 -13.755 -4.45
      vertex 9.73084 -11.5265 -4.45
      vertex 9.59883 -11.4972 -4.45
    endloop
  endfacet
  facet normal 0 0 1
    outer loop
      vertex 5 -13.755 -4.45
      vertex 9.59883 -11.4972 -4.45
      vertex 9.46987 -11.4565 -4.45
    endloop
  endfacet
  facet normal 0 0 1
    outer loop
      vertex 5 -13.755 -4.45
      vertex 9.46987 -11.4565 -4.45
      vertex 9.34494 -11.4048 -4.45
    endloop
  endfacet
  facet normal 0 0 1
    outer loop
      vertex 5 -13.755 -4.45
      vertex 9.34494 -11.4048 -4.45
      vertex 9.225 -11.3423 -4.45
    endloop
  endfacet
  facet normal 0 0 1
    outer loop
      vertex 8.4559 -9.86491 -4.45
      vertex 5 -13.755 -4.45
      vertex 8.45 -10 -4.45
    endloop
  endfacet
  facet normal 0 0 1
    outer loop
      vertex 8.45 -10 -4.45
      vertex 5 -13.755 -4.45
      vertex 8.4559 -10.1351 -4.45
    endloop
  endfacet
  facet normal 0 0 1
    outer loop
      vertex 8.4559 -10.1351 -4.45
      vertex 5 -13.755 -4.45
      vertex 8.47355 -10.2692 -4.45
    endloop
  endfacet
  facet normal 0 0 1
    outer loop
      vertex 8.47355 -10.2692 -4.45
      vertex 5 -13.755 -4.45
      vertex 8.50281 -10.4012 -4.45
    endloop
  endfacet
  facet normal 0 0 1
    outer loop
      vertex 8.50281 -10.4012 -4.45
      vertex 5 -13.755 -4.45
      vertex 8.54348 -10.5301 -4.45
    endloop
  endfacet
  facet normal 0 0 1
    outer loop
      vertex 8.54348 -10.5301 -4.45
      vertex 5 -13.755 -4.45
      vertex 8.59522 -10.6551 -4.45
    endloop
  endfacet
  facet normal 0 0 1
    outer loop
      vertex 9.86491 -11.5441 -4.45
      vertex 5 -13.755 -4.45
      vertex 13.755 -13.755 -4.45
    endloop
  endfacet
  facet normal 0 0 1
    outer loop
      vertex 9.11096 -11.2697 -4.45
      vertex 5 -13.755 -4.45
      vertex 9.225 -11.3423 -4.45
    endloop
  endfacet
  facet normal 0 0 1
    outer loop
      vertex 9.00368 -11.1874 -4.45
      vertex 5 -13.755 -4.45
      vertex 9.11096 -11.2697 -4.45
    endloop
  endfacet
  facet normal 0 0 1
    outer loop
      vertex 8.90398 -11.096 -4.45
      vertex 5 -13.755 -4.45
      vertex 9.00368 -11.1874 -4.45
    endloop
  endfacet
  facet normal 0 0 1
    outer loop
      vertex 8.81263 -10.9963 -4.45
      vertex 5 -13.755 -4.45
      vertex 8.90398 -11.096 -4.45
    endloop
  endfacet
  facet normal 0 0 1
    outer loop
      vertex 8.73031 -10.889 -4.45
      vertex 5 -13.755 -4.45
      vertex 8.81263 -10.9963 -4.45
    endloop
  endfacet
  facet normal 0 0 1
    outer loop
      vertex 8.65766 -10.775 -4.45
      vertex 5 -13.755 -4.45
      vertex 8.73031 -10.889 -4.45
    endloop
  endfacet
  facet normal 0 0 1
    outer loop
      vertex 8.59522 -10.6551 -4.45
      vertex 5 -13.755 -4.45
      vertex 8.65766 -10.775 -4.45
    endloop
  endfacet
  facet normal 0 -1 0
    outer loop
      vertex 5 -13.755 -5
      vertex 13.755 -13.755 -4.45
      vertex 5 -13.755 -4.45
    endloop
  endfacet
  facet normal 0 -1 0
    outer loop
      vertex 13.755 -13.755 -7.45
      vertex 5 -13.755 -5
      vertex 3 -13.755 -7
    endloop
  endfacet
  facet normal 0 -1 0
    outer loop
      vertex 5 -13.755 -5
      vertex 13.755 -13.755 -7.45
      vertex 13.755 -13.755 -4.45
    endloop
  endfacet
  facet normal -0 -1 0
    outer loop
      vertex 13.755 -13.755 -7.45
      vertex 3 -13.755 -7
      vertex 3 -13.755 -18.205
    endloop
  endfacet
  facet normal 1 0 0
    outer loop
      vertex 13.755 -5 -4.45
      vertex 13.755 -13.755 -4.45
      vertex 13.755 -5 -5
    endloop
  endfacet
  facet normal 1 0 0
    outer loop
      vertex 13.755 -5 -5
      vertex 13.755 -3 -7.45
      vertex 13.755 -3 -7
    endloop
  endfacet
  facet normal 1 0 0
    outer loop
      vertex 13.755 -13.755 -7.45
      vertex 13.755 -5 -5
      vertex 13.755 -13.755 -4.45
    endloop
  endfacet
  facet normal 1 0 0
    outer loop
      vertex 13.755 -5 -5
      vertex 13.755 -13.755 -7.45
      vertex 13.755 -3 -7.45
    endloop
  endfacet
  facet normal 0.707107 -1.48692e-16 -0.707107
    outer loop
      vertex 8.45 -8.45 -12.755
      vertex 13.755 -3 -7.45
      vertex 11.55 -8.45 -9.655
    endloop
  endfacet
  facet normal 0.707107 0 -0.707107
    outer loop
      vertex 13.755 -13.755 -7.45
      vertex 11.55 -8.45 -9.655
      vertex 13.755 -3 -7.45
    endloop
  endfacet
  facet normal 0.707107 2.75636e-16 -0.707107
    outer loop
      vertex 11.55 -11.55 -9.655
      vertex 13.755 -13.755 -7.45
      vertex 8.45 -11.55 -12.755
    endloop
  endfacet
  facet normal 0.707107 0 -0.707107
    outer loop
      vertex 11.55 -8.45 -9.655
      vertex 13.755 -13.755 -7.45
      vertex 11.55 -11.55 -9.655
    endloop
  endfacet
  facet normal 0.707107 0 -0.707107
    outer loop
      vertex 13.755 -3 -7.45
      vertex 8.45 -8.45 -12.755
      vertex 3 -3 -18.205
    endloop
  endfacet
  facet normal 0.707107 0 -0.707107
    outer loop
      vertex 3 -13.755 -18.205
      vertex 8.45 -8.45 -12.755
      vertex 8.45 -11.55 -12.755
    endloop
  endfacet
  facet normal 0.707107 0 -0.707107
    outer loop
      vertex 8.45 -8.45 -12.755
      vertex 3 -13.755 -18.205
      vertex 3 -3 -18.205
    endloop
  endfacet
  facet normal 0.707107 -2.11864e-16 -0.707107
    outer loop
      vertex 3 -13.755 -18.205
      vertex 8.45 -11.55 -12.755
      vertex 13.755 -13.755 -7.45
    endloop
  endfacet
  facet normal -0.991497 0.130129 0
    outer loop
      vertex 11.5265 -10.2692 -7.45
      vertex 11.5441 -10.1351 -4.45
      vertex 11.5441 -10.1351 -7.45
    endloop
  endfacet
  facet normal -0.991497 0.130129 0
    outer loop
      vertex 11.5441 -10.1351 -4.45
      vertex 11.5265 -10.2692 -7.45
      vertex 11.5265 -10.2692 -4.45
    endloop
  endfacet
  facet normal -0.999048 0.0436298 0
    outer loop
      vertex 11.5441 -10.1351 -7.45
      vertex 11.55 -10 -4.45
      vertex 11.55 -10 -7.45
    endloop
  endfacet
  facet normal -0.999048 0.0436298 0
    outer loop
      vertex 11.55 -10 -4.45
      vertex 11.5441 -10.1351 -7.45
      vertex 11.5441 -10.1351 -4.45
    endloop
  endfacet
  facet normal -0.976239 0.216696 0
    outer loop
      vertex 11.4972 -10.4012 -7.45
      vertex 11.5265 -10.2692 -4.45
      vertex 11.5265 -10.2692 -7.45
    endloop
  endfacet
  facet normal -0.976239 0.216696 0
    outer loop
      vertex 11.5265 -10.2692 -4.45
      vertex 11.4972 -10.4012 -7.45
      vertex 11.4972 -10.4012 -4.45
    endloop
  endfacet
  facet normal -0.843479 0.537163 0
    outer loop
      vertex 11.2697 -10.889 -7.45
      vertex 11.3423 -10.775 -4.45
      vertex 11.3423 -10.775 -7.45
    endloop
  endfacet
  facet normal -0.843479 0.537163 0
    outer loop
      vertex 11.3423 -10.775 -4.45
      vertex 11.2697 -10.889 -7.45
      vertex 11.2697 -10.889 -4.45
    endloop
  endfacet
  facet normal 0.130521 -0.991445 0
    outer loop
      vertex 9.73084 -8.47355 -7.45
      vertex 9.86491 -8.4559 -4.45
      vertex 9.73084 -8.47355 -4.45
    endloop
  endfacet
  facet normal 0.130521 -0.991445 0
    outer loop
      vertex 9.86491 -8.4559 -4.45
      vertex 9.73084 -8.47355 -7.45
      vertex 9.86491 -8.4559 -7.45
    endloop
  endfacet
  facet normal 0.886938 0.461888 0
    outer loop
      vertex 8.65766 -10.775 -4.45
      vertex 8.59522 -10.6551 -7.45
      vertex 8.59522 -10.6551 -4.45
    endloop
  endfacet
  facet normal 0.886938 0.461888 0
    outer loop
      vertex 8.59522 -10.6551 -7.45
      vertex 8.65766 -10.775 -4.45
      vertex 8.65766 -10.775 -7.45
    endloop
  endfacet
  facet normal 0.887001 -0.461767 0
    outer loop
      vertex 8.59522 -9.34494 -4.45
      vertex 8.65766 -9.225 -7.45
      vertex 8.65766 -9.225 -4.45
    endloop
  endfacet
  facet normal 0.887001 -0.461767 0
    outer loop
      vertex 8.65766 -9.225 -7.45
      vertex 8.59522 -9.34494 -4.45
      vertex 8.59522 -9.34494 -7.45
    endloop
  endfacet
  facet normal 0.923975 0.382452 0
    outer loop
      vertex 8.59522 -10.6551 -4.45
      vertex 8.54348 -10.5301 -7.45
      vertex 8.54348 -10.5301 -4.45
    endloop
  endfacet
  facet normal 0.923975 0.382452 0
    outer loop
      vertex 8.54348 -10.5301 -7.45
      vertex 8.59522 -10.6551 -4.45
      vertex 8.59522 -10.6551 -7.45
    endloop
  endfacet
  facet normal 0.737308 -0.675557 0
    outer loop
      vertex 8.81263 -9.00368 -4.45
      vertex 8.90398 -8.90398 -7.45
      vertex 8.90398 -8.90398 -4.45
    endloop
  endfacet
  facet normal 0.737308 -0.675557 0
    outer loop
      vertex 8.90398 -8.90398 -7.45
      vertex 8.81263 -9.00368 -4.45
      vertex 8.81263 -9.00368 -7.45
    endloop
  endfacet
  facet normal -0.537163 0.843479 0
    outer loop
      vertex 10.889 -11.2697 -7.45
      vertex 10.775 -11.3423 -4.45
      vertex 10.889 -11.2697 -4.45
    endloop
  endfacet
  facet normal -0.537163 0.843479 0
    outer loop
      vertex 10.775 -11.3423 -4.45
      vertex 10.889 -11.2697 -7.45
      vertex 10.775 -11.3423 -7.45
    endloop
  endfacet
  facet normal -0.675758 0.737123 0
    outer loop
      vertex 11.096 -11.096 -7.45
      vertex 10.9963 -11.1874 -4.45
      vertex 11.096 -11.096 -4.45
    endloop
  endfacet
  facet normal -0.675758 0.737123 0
    outer loop
      vertex 10.9963 -11.1874 -4.45
      vertex 11.096 -11.096 -7.45
      vertex 10.9963 -11.1874 -7.45
    endloop
  endfacet
  facet normal -0.675557 -0.737308 0
    outer loop
      vertex 10.9963 -8.81263 -7.45
      vertex 11.096 -8.90398 -4.45
      vertex 10.9963 -8.81263 -4.45
    endloop
  endfacet
  facet normal -0.675557 -0.737308 -0
    outer loop
      vertex 11.096 -8.90398 -4.45
      vertex 10.9963 -8.81263 -7.45
      vertex 11.096 -8.90398 -7.45
    endloop
  endfacet
  facet normal 0.043633 -0.999048 0
    outer loop
      vertex 9.86491 -8.4559 -7.45
      vertex 10 -8.45 -4.45
      vertex 9.86491 -8.4559 -4.45
    endloop
  endfacet
  facet normal 0.043633 -0.999048 0
    outer loop
      vertex 10 -8.45 -4.45
      vertex 9.86491 -8.4559 -7.45
      vertex 10 -8.45 -7.45
    endloop
  endfacet
  facet normal -0.843564 -0.537029 0
    outer loop
      vertex 11.3423 -9.225 -7.45
      vertex 11.2697 -9.11096 -4.45
      vertex 11.2697 -9.11096 -7.45
    endloop
  endfacet
  facet normal -0.843564 -0.537029 0
    outer loop
      vertex 11.2697 -9.11096 -4.45
      vertex 11.3423 -9.225 -7.45
      vertex 11.3423 -9.225 -4.45
    endloop
  endfacet
  facet normal -0.216414 -0.976302 0
    outer loop
      vertex 10.2692 -8.47355 -7.45
      vertex 10.4012 -8.50281 -4.45
      vertex 10.2692 -8.47355 -4.45
    endloop
  endfacet
  facet normal -0.216414 -0.976302 -0
    outer loop
      vertex 10.4012 -8.50281 -4.45
      vertex 10.2692 -8.47355 -7.45
      vertex 10.4012 -8.50281 -7.45
    endloop
  endfacet
  facet normal -0.924004 -0.382382 0
    outer loop
      vertex 11.4565 -9.46987 -7.45
      vertex 11.4048 -9.34494 -4.45
      vertex 11.4048 -9.34494 -7.45
    endloop
  endfacet
  facet normal -0.924004 -0.382382 0
    outer loop
      vertex 11.4048 -9.34494 -4.45
      vertex 11.4565 -9.46987 -7.45
      vertex 11.4565 -9.46987 -4.45
    endloop
  endfacet
  facet normal 0.843396 -0.537292 0
    outer loop
      vertex 8.65766 -9.225 -4.45
      vertex 8.73031 -9.11096 -7.45
      vertex 8.73031 -9.11096 -4.45
    endloop
  endfacet
  facet normal 0.843396 -0.537292 0
    outer loop
      vertex 8.73031 -9.11096 -7.45
      vertex 8.65766 -9.225 -4.45
      vertex 8.65766 -9.225 -7.45
    endloop
  endfacet
  facet normal -0.608602 0.793475 0
    outer loop
      vertex 10.9963 -11.1874 -7.45
      vertex 10.889 -11.2697 -4.45
      vertex 10.9963 -11.1874 -4.45
    endloop
  endfacet
  facet normal -0.608602 0.793475 0
    outer loop
      vertex 10.889 -11.2697 -4.45
      vertex 10.9963 -11.1874 -7.45
      vertex 10.889 -11.2697 -7.45
    endloop
  endfacet
  facet normal -0.886756 0.462237 0
    outer loop
      vertex 11.3423 -10.775 -7.45
      vertex 11.4048 -10.6551 -4.45
      vertex 11.4048 -10.6551 -7.45
    endloop
  endfacet
  facet normal -0.886756 0.462237 0
    outer loop
      vertex 11.4048 -10.6551 -4.45
      vertex 11.3423 -10.775 -7.45
      vertex 11.3423 -10.775 -4.45
    endloop
  endfacet
  facet normal 0.999048 -0.043633 0
    outer loop
      vertex 8.45 -10 -4.45
      vertex 8.4559 -9.86491 -7.45
      vertex 8.4559 -9.86491 -4.45
    endloop
  endfacet
  facet normal 0.999048 -0.043633 0
    outer loop
      vertex 8.4559 -9.86491 -7.45
      vertex 8.45 -10 -4.45
      vertex 8.45 -10 -7.45
    endloop
  endfacet
  facet normal 0.793349 -0.608767 0
    outer loop
      vertex 8.73031 -9.11096 -4.45
      vertex 8.81263 -9.00368 -7.45
      vertex 8.81263 -9.00368 -4.45
    endloop
  endfacet
  facet normal 0.793349 -0.608767 0
    outer loop
      vertex 8.81263 -9.00368 -7.45
      vertex 8.73031 -9.11096 -4.45
      vertex 8.73031 -9.11096 -7.45
    endloop
  endfacet
  facet normal -0.382199 0.92408 0
    outer loop
      vertex 10.6551 -11.4048 -7.45
      vertex 10.5301 -11.4565 -4.45
      vertex 10.6551 -11.4048 -4.45
    endloop
  endfacet
  facet normal -0.382199 0.92408 0
    outer loop
      vertex 10.5301 -11.4565 -4.45
      vertex 10.6551 -11.4048 -7.45
      vertex 10.5301 -11.4565 -7.45
    endloop
  endfacet
  facet normal 0.300767 -0.953698 0
    outer loop
      vertex 9.46987 -8.54348 -7.45
      vertex 9.59883 -8.50281 -4.45
      vertex 9.46987 -8.54348 -4.45
    endloop
  endfacet
  facet normal 0.300767 -0.953698 0
    outer loop
      vertex 9.59883 -8.50281 -4.45
      vertex 9.46987 -8.54348 -7.45
      vertex 9.59883 -8.50281 -7.45
    endloop
  endfacet
  facet normal 0.843311 0.537426 0
    outer loop
      vertex 8.73031 -10.889 -4.45
      vertex 8.65766 -10.775 -7.45
      vertex 8.65766 -10.775 -4.45
    endloop
  endfacet
  facet normal 0.843311 0.537426 0
    outer loop
      vertex 8.65766 -10.775 -7.45
      vertex 8.73031 -10.889 -4.45
      vertex 8.73031 -10.889 -7.45
    endloop
  endfacet
  facet normal 0.675758 0.737123 -0
    outer loop
      vertex 9.00368 -11.1874 -7.45
      vertex 8.90398 -11.096 -4.45
      vertex 9.00368 -11.1874 -4.45
    endloop
  endfacet
  facet normal 0.675758 0.737123 0
    outer loop
      vertex 8.90398 -11.096 -4.45
      vertex 9.00368 -11.1874 -7.45
      vertex 8.90398 -11.096 -7.45
    endloop
  endfacet
  facet normal 0.461767 -0.887001 0
    outer loop
      vertex 9.225 -8.65766 -7.45
      vertex 9.34494 -8.59522 -4.45
      vertex 9.225 -8.65766 -4.45
    endloop
  endfacet
  facet normal 0.461767 -0.887001 0
    outer loop
      vertex 9.34494 -8.59522 -4.45
      vertex 9.225 -8.65766 -7.45
      vertex 9.34494 -8.59522 -7.45
    endloop
  endfacet
  facet normal 0.21668 0.976243 -0
    outer loop
      vertex 9.73084 -11.5265 -7.45
      vertex 9.59883 -11.4972 -4.45
      vertex 9.73084 -11.5265 -4.45
    endloop
  endfacet
  facet normal 0.21668 0.976243 0
    outer loop
      vertex 9.59883 -11.4972 -4.45
      vertex 9.73084 -11.5265 -7.45
      vertex 9.59883 -11.4972 -7.45
    endloop
  endfacet
  facet normal -0.92408 0.382199 0
    outer loop
      vertex 11.4048 -10.6551 -7.45
      vertex 11.4565 -10.5301 -4.45
      vertex 11.4565 -10.5301 -7.45
    endloop
  endfacet
  facet normal -0.92408 0.382199 0
    outer loop
      vertex 11.4565 -10.5301 -4.45
      vertex 11.4048 -10.6551 -7.45
      vertex 11.4048 -10.6551 -4.45
    endloop
  endfacet
  facet normal -0.999048 -0.043633 0
    outer loop
      vertex 11.55 -10 -7.45
      vertex 11.5441 -9.86491 -4.45
      vertex 11.5441 -9.86491 -7.45
    endloop
  endfacet
  facet normal -0.999048 -0.043633 0
    outer loop
      vertex 11.5441 -9.86491 -4.45
      vertex 11.55 -10 -7.45
      vertex 11.55 -10 -4.45
    endloop
  endfacet
  facet normal -0.301096 0.953594 0
    outer loop
      vertex 10.5301 -11.4565 -7.45
      vertex 10.4012 -11.4972 -4.45
      vertex 10.5301 -11.4565 -4.45
    endloop
  endfacet
  facet normal -0.301096 0.953594 0
    outer loop
      vertex 10.4012 -11.4972 -4.45
      vertex 10.5301 -11.4565 -7.45
      vertex 10.4012 -11.4972 -7.45
    endloop
  endfacet
  facet normal 0.216398 -0.976305 0
    outer loop
      vertex 9.59883 -8.50281 -7.45
      vertex 9.73084 -8.47355 -4.45
      vertex 9.59883 -8.50281 -4.45
    endloop
  endfacet
  facet normal 0.216398 -0.976305 0
    outer loop
      vertex 9.73084 -8.47355 -4.45
      vertex 9.59883 -8.50281 -7.45
      vertex 9.73084 -8.47355 -7.45
    endloop
  endfacet
  facet normal 0.953658 0.300894 0
    outer loop
      vertex 8.54348 -10.5301 -4.45
      vertex 8.50281 -10.4012 -7.45
      vertex 8.50281 -10.4012 -4.45
    endloop
  endfacet
  facet normal 0.953658 0.300894 0
    outer loop
      vertex 8.50281 -10.4012 -7.45
      vertex 8.54348 -10.5301 -4.45
      vertex 8.54348 -10.5301 -7.45
    endloop
  endfacet
  facet normal 0.608674 0.793421 -0
    outer loop
      vertex 9.11096 -11.2697 -7.45
      vertex 9.00368 -11.1874 -4.45
      vertex 9.11096 -11.2697 -4.45
    endloop
  endfacet
  facet normal 0.608674 0.793421 0
    outer loop
      vertex 9.00368 -11.1874 -4.45
      vertex 9.11096 -11.2697 -7.45
      vertex 9.00368 -11.1874 -7.45
    endloop
  endfacet
  facet normal 0.953698 -0.300767 0
    outer loop
      vertex 8.50281 -9.59883 -4.45
      vertex 8.54348 -9.46987 -7.45
      vertex 8.54348 -9.46987 -4.45
    endloop
  endfacet
  facet normal 0.953698 -0.300767 0
    outer loop
      vertex 8.54348 -9.46987 -7.45
      vertex 8.50281 -9.59883 -4.45
      vertex 8.50281 -9.59883 -7.45
    endloop
  endfacet
  facet normal -0.608695 -0.793404 0
    outer loop
      vertex 10.889 -8.73031 -7.45
      vertex 10.9963 -8.81263 -4.45
      vertex 10.889 -8.73031 -4.45
    endloop
  endfacet
  facet normal -0.608695 -0.793404 -0
    outer loop
      vertex 10.9963 -8.81263 -4.45
      vertex 10.889 -8.73031 -7.45
      vertex 10.9963 -8.81263 -7.45
    endloop
  endfacet
  facet normal 0.043633 0.999048 -0
    outer loop
      vertex 10 -11.55 -7.45
      vertex 9.86491 -11.5441 -4.45
      vertex 10 -11.55 -4.45
    endloop
  endfacet
  facet normal 0.043633 0.999048 0
    outer loop
      vertex 9.86491 -11.5441 -4.45
      vertex 10 -11.55 -7.45
      vertex 9.86491 -11.5441 -7.45
    endloop
  endfacet
  facet normal -0.976243 -0.21668 0
    outer loop
      vertex 11.5265 -9.73084 -7.45
      vertex 11.4972 -9.59883 -4.45
      vertex 11.4972 -9.59883 -7.45
    endloop
  endfacet
  facet normal -0.976243 -0.21668 0
    outer loop
      vertex 11.4972 -9.59883 -4.45
      vertex 11.5265 -9.73084 -7.45
      vertex 11.5265 -9.73084 -4.45
    endloop
  endfacet
  facet normal -0.991493 -0.130158 0
    outer loop
      vertex 11.5441 -9.86491 -7.45
      vertex 11.5265 -9.73084 -4.45
      vertex 11.5265 -9.73084 -7.45
    endloop
  endfacet
  facet normal -0.991493 -0.130158 0
    outer loop
      vertex 11.5265 -9.73084 -4.45
      vertex 11.5441 -9.86491 -7.45
      vertex 11.5441 -9.86491 -4.45
    endloop
  endfacet
  facet normal -0.461888 -0.886938 0
    outer loop
      vertex 10.6551 -8.59522 -7.45
      vertex 10.775 -8.65766 -4.45
      vertex 10.6551 -8.59522 -4.45
    endloop
  endfacet
  facet normal -0.461888 -0.886938 -0
    outer loop
      vertex 10.775 -8.65766 -4.45
      vertex 10.6551 -8.59522 -7.45
      vertex 10.775 -8.65766 -7.45
    endloop
  endfacet
  facet normal -0.130129 0.991497 0
    outer loop
      vertex 10.2692 -11.5265 -7.45
      vertex 10.1351 -11.5441 -4.45
      vertex 10.2692 -11.5265 -4.45
    endloop
  endfacet
  facet normal -0.130129 0.991497 0
    outer loop
      vertex 10.1351 -11.5441 -4.45
      vertex 10.2692 -11.5265 -7.45
      vertex 10.1351 -11.5441 -7.45
    endloop
  endfacet
  facet normal 0.300969 0.953634 -0
    outer loop
      vertex 9.59883 -11.4972 -7.45
      vertex 9.46987 -11.4565 -4.45
      vertex 9.59883 -11.4972 -4.45
    endloop
  endfacet
  facet normal 0.300969 0.953634 0
    outer loop
      vertex 9.46987 -11.4565 -4.45
      vertex 9.59883 -11.4972 -7.45
      vertex 9.46987 -11.4565 -7.45
    endloop
  endfacet
  facet normal -0.130493 -0.991449 0
    outer loop
      vertex 10.1351 -8.4559 -7.45
      vertex 10.2692 -8.47355 -4.45
      vertex 10.1351 -8.4559 -4.45
    endloop
  endfacet
  facet normal -0.130493 -0.991449 -0
    outer loop
      vertex 10.2692 -8.47355 -4.45
      vertex 10.1351 -8.4559 -7.45
      vertex 10.2692 -8.47355 -7.45
    endloop
  endfacet
  facet normal -0.462237 0.886756 0
    outer loop
      vertex 10.775 -11.3423 -7.45
      vertex 10.6551 -11.4048 -4.45
      vertex 10.775 -11.3423 -4.45
    endloop
  endfacet
  facet normal -0.462237 0.886756 0
    outer loop
      vertex 10.6551 -11.4048 -4.45
      vertex 10.775 -11.3423 -7.45
      vertex 10.6551 -11.4048 -7.45
    endloop
  endfacet
  facet normal -0.886819 -0.462116 0
    outer loop
      vertex 11.4048 -9.34494 -7.45
      vertex 11.3423 -9.225 -4.45
      vertex 11.3423 -9.225 -7.45
    endloop
  endfacet
  facet normal -0.886819 -0.462116 0
    outer loop
      vertex 11.3423 -9.225 -4.45
      vertex 11.4048 -9.34494 -7.45
      vertex 11.4048 -9.34494 -4.45
    endloop
  endfacet
  facet normal -0.953634 -0.300969 0
    outer loop
      vertex 11.4972 -9.59883 -7.45
      vertex 11.4565 -9.46987 -4.45
      vertex 11.4565 -9.46987 -7.45
    endloop
  endfacet
  facet normal -0.953634 -0.300969 0
    outer loop
      vertex 11.4565 -9.46987 -4.45
      vertex 11.4972 -9.59883 -7.45
      vertex 11.4972 -9.59883 -4.45
    endloop
  endfacet
  facet normal 0.462116 0.886819 -0
    outer loop
      vertex 9.34494 -11.4048 -7.45
      vertex 9.225 -11.3423 -4.45
      vertex 9.34494 -11.4048 -4.45
    endloop
  endfacet
  facet normal 0.462116 0.886819 0
    outer loop
      vertex 9.225 -11.3423 -4.45
      vertex 9.34494 -11.4048 -7.45
      vertex 9.225 -11.3423 -7.45
    endloop
  endfacet
  facet normal -0.953594 0.301096 0
    outer loop
      vertex 11.4565 -10.5301 -7.45
      vertex 11.4972 -10.4012 -4.45
      vertex 11.4972 -10.4012 -7.45
    endloop
  endfacet
  facet normal -0.953594 0.301096 0
    outer loop
      vertex 11.4972 -10.4012 -4.45
      vertex 11.4565 -10.5301 -7.45
      vertex 11.4565 -10.5301 -4.45
    endloop
  endfacet
  facet normal 0.9239 -0.382635 0
    outer loop
      vertex 8.54348 -9.46987 -4.45
      vertex 8.59522 -9.34494 -7.45
      vertex 8.59522 -9.34494 -4.45
    endloop
  endfacet
  facet normal 0.9239 -0.382635 0
    outer loop
      vertex 8.59522 -9.34494 -7.45
      vertex 8.54348 -9.46987 -4.45
      vertex 8.54348 -9.46987 -7.45
    endloop
  endfacet
  facet normal 0.737308 0.675557 0
    outer loop
      vertex 8.90398 -11.096 -4.45
      vertex 8.81263 -10.9963 -7.45
      vertex 8.81263 -10.9963 -4.45
    endloop
  endfacet
  facet normal 0.737308 0.675557 0
    outer loop
      vertex 8.81263 -10.9963 -7.45
      vertex 8.90398 -11.096 -4.45
      vertex 8.90398 -11.096 -7.45
    endloop
  endfacet
  facet normal 0.382635 -0.9239 0
    outer loop
      vertex 9.34494 -8.59522 -7.45
      vertex 9.46987 -8.54348 -4.45
      vertex 9.34494 -8.59522 -4.45
    endloop
  endfacet
  facet normal 0.382635 -0.9239 0
    outer loop
      vertex 9.46987 -8.54348 -4.45
      vertex 9.34494 -8.59522 -7.45
      vertex 9.46987 -8.54348 -7.45
    endloop
  endfacet
  facet normal -0.0436298 -0.999048 0
    outer loop
      vertex 10 -8.45 -7.45
      vertex 10.1351 -8.4559 -4.45
      vertex 10 -8.45 -4.45
    endloop
  endfacet
  facet normal -0.0436298 -0.999048 -0
    outer loop
      vertex 10.1351 -8.4559 -4.45
      vertex 10 -8.45 -7.45
      vertex 10.1351 -8.4559 -7.45
    endloop
  endfacet
  facet normal 0.382382 0.924004 -0
    outer loop
      vertex 9.46987 -11.4565 -7.45
      vertex 9.34494 -11.4048 -4.45
      vertex 9.46987 -11.4565 -4.45
    endloop
  endfacet
  facet normal 0.382382 0.924004 0
    outer loop
      vertex 9.34494 -11.4048 -4.45
      vertex 9.46987 -11.4565 -7.45
      vertex 9.34494 -11.4048 -7.45
    endloop
  endfacet
  facet normal 0.991445 -0.130521 0
    outer loop
      vertex 8.4559 -9.86491 -4.45
      vertex 8.47355 -9.73084 -7.45
      vertex 8.47355 -9.73084 -4.45
    endloop
  endfacet
  facet normal 0.991445 -0.130521 0
    outer loop
      vertex 8.47355 -9.73084 -7.45
      vertex 8.4559 -9.86491 -4.45
      vertex 8.4559 -9.86491 -7.45
    endloop
  endfacet
  facet normal 0.130158 0.991493 -0
    outer loop
      vertex 9.86491 -11.5441 -7.45
      vertex 9.73084 -11.5265 -4.45
      vertex 9.86491 -11.5441 -4.45
    endloop
  endfacet
  facet normal 0.130158 0.991493 0
    outer loop
      vertex 9.73084 -11.5265 -4.45
      vertex 9.86491 -11.5441 -7.45
      vertex 9.73084 -11.5265 -7.45
    endloop
  endfacet
  facet normal -0.382452 -0.923975 0
    outer loop
      vertex 10.5301 -8.54348 -7.45
      vertex 10.6551 -8.59522 -4.45
      vertex 10.5301 -8.54348 -4.45
    endloop
  endfacet
  facet normal -0.382452 -0.923975 -0
    outer loop
      vertex 10.6551 -8.59522 -4.45
      vertex 10.5301 -8.54348 -7.45
      vertex 10.6551 -8.59522 -7.45
    endloop
  endfacet
  facet normal -0.300894 -0.953658 0
    outer loop
      vertex 10.4012 -8.50281 -7.45
      vertex 10.5301 -8.54348 -4.45
      vertex 10.4012 -8.50281 -4.45
    endloop
  endfacet
  facet normal -0.300894 -0.953658 -0
    outer loop
      vertex 10.5301 -8.54348 -4.45
      vertex 10.4012 -8.50281 -7.45
      vertex 10.5301 -8.54348 -7.45
    endloop
  endfacet
  facet normal 0.537292 -0.843396 0
    outer loop
      vertex 9.11096 -8.73031 -7.45
      vertex 9.225 -8.65766 -4.45
      vertex 9.11096 -8.73031 -4.45
    endloop
  endfacet
  facet normal 0.537292 -0.843396 0
    outer loop
      vertex 9.225 -8.65766 -4.45
      vertex 9.11096 -8.73031 -7.45
      vertex 9.225 -8.65766 -7.45
    endloop
  endfacet
  facet normal -0.0436298 0.999048 0
    outer loop
      vertex 10.1351 -11.5441 -7.45
      vertex 10 -11.55 -4.45
      vertex 10.1351 -11.5441 -4.45
    endloop
  endfacet
  facet normal -0.0436298 0.999048 0
    outer loop
      vertex 10 -11.55 -4.45
      vertex 10.1351 -11.5441 -7.45
      vertex 10 -11.55 -7.45
    endloop
  endfacet
  facet normal 0.675557 -0.737308 0
    outer loop
      vertex 8.90398 -8.90398 -7.45
      vertex 9.00368 -8.81263 -4.45
      vertex 8.90398 -8.90398 -4.45
    endloop
  endfacet
  facet normal 0.675557 -0.737308 0
    outer loop
      vertex 9.00368 -8.81263 -4.45
      vertex 8.90398 -8.90398 -7.45
      vertex 9.00368 -8.81263 -7.45
    endloop
  endfacet
  facet normal -0.793421 -0.608674 0
    outer loop
      vertex 11.2697 -9.11096 -7.45
      vertex 11.1874 -9.00368 -4.45
      vertex 11.1874 -9.00368 -7.45
    endloop
  endfacet
  facet normal -0.793421 -0.608674 0
    outer loop
      vertex 11.1874 -9.00368 -4.45
      vertex 11.2697 -9.11096 -7.45
      vertex 11.2697 -9.11096 -4.45
    endloop
  endfacet
  facet normal 0.976305 -0.216398 0
    outer loop
      vertex 8.47355 -9.73084 -4.45
      vertex 8.50281 -9.59883 -7.45
      vertex 8.50281 -9.59883 -4.45
    endloop
  endfacet
  facet normal 0.976305 -0.216398 0
    outer loop
      vertex 8.50281 -9.59883 -7.45
      vertex 8.47355 -9.73084 -4.45
      vertex 8.47355 -9.73084 -7.45
    endloop
  endfacet
  facet normal 0.976302 0.216414 0
    outer loop
      vertex 8.50281 -10.4012 -4.45
      vertex 8.47355 -10.2692 -7.45
      vertex 8.47355 -10.2692 -4.45
    endloop
  endfacet
  facet normal 0.976302 0.216414 0
    outer loop
      vertex 8.47355 -10.2692 -7.45
      vertex 8.50281 -10.4012 -4.45
      vertex 8.50281 -10.4012 -7.45
    endloop
  endfacet
  facet normal 0.991449 0.130493 0
    outer loop
      vertex 8.47355 -10.2692 -4.45
      vertex 8.4559 -10.1351 -7.45
      vertex 8.4559 -10.1351 -4.45
    endloop
  endfacet
  facet normal 0.991449 0.130493 0
    outer loop
      vertex 8.4559 -10.1351 -7.45
      vertex 8.47355 -10.2692 -4.45
      vertex 8.47355 -10.2692 -7.45
    endloop
  endfacet
  facet normal -0.737123 0.675758 0
    outer loop
      vertex 11.096 -11.096 -7.45
      vertex 11.1874 -10.9963 -4.45
      vertex 11.1874 -10.9963 -7.45
    endloop
  endfacet
  facet normal -0.737123 0.675758 0
    outer loop
      vertex 11.1874 -10.9963 -4.45
      vertex 11.096 -11.096 -7.45
      vertex 11.096 -11.096 -4.45
    endloop
  endfacet
  facet normal -0.793475 0.608602 0
    outer loop
      vertex 11.1874 -10.9963 -7.45
      vertex 11.2697 -10.889 -4.45
      vertex 11.2697 -10.889 -7.45
    endloop
  endfacet
  facet normal -0.793475 0.608602 0
    outer loop
      vertex 11.2697 -10.889 -4.45
      vertex 11.1874 -10.9963 -7.45
      vertex 11.1874 -10.9963 -4.45
    endloop
  endfacet
  facet normal 0.537029 0.843564 -0
    outer loop
      vertex 9.225 -11.3423 -7.45
      vertex 9.11096 -11.2697 -4.45
      vertex 9.225 -11.3423 -4.45
    endloop
  endfacet
  facet normal 0.537029 0.843564 0
    outer loop
      vertex 9.11096 -11.2697 -4.45
      vertex 9.225 -11.3423 -7.45
      vertex 9.11096 -11.2697 -7.45
    endloop
  endfacet
  facet normal 0.999048 0.0436298 0
    outer loop
      vertex 8.4559 -10.1351 -4.45
      vertex 8.45 -10 -7.45
      vertex 8.45 -10 -4.45
    endloop
  endfacet
  facet normal 0.999048 0.0436298 0
    outer loop
      vertex 8.45 -10 -7.45
      vertex 8.4559 -10.1351 -4.45
      vertex 8.4559 -10.1351 -7.45
    endloop
  endfacet
  facet normal -0.537426 -0.843311 0
    outer loop
      vertex 10.775 -8.65766 -7.45
      vertex 10.889 -8.73031 -4.45
      vertex 10.775 -8.65766 -4.45
    endloop
  endfacet
  facet normal -0.537426 -0.843311 -0
    outer loop
      vertex 10.889 -8.73031 -4.45
      vertex 10.775 -8.65766 -7.45
      vertex 10.889 -8.73031 -7.45
    endloop
  endfacet
  facet normal -0.737123 -0.675758 0
    outer loop
      vertex 11.1874 -9.00368 -7.45
      vertex 11.096 -8.90398 -4.45
      vertex 11.096 -8.90398 -7.45
    endloop
  endfacet
  facet normal -0.737123 -0.675758 0
    outer loop
      vertex 11.096 -8.90398 -4.45
      vertex 11.1874 -9.00368 -7.45
      vertex 11.1874 -9.00368 -4.45
    endloop
  endfacet
  facet normal -0.216696 0.976239 0
    outer loop
      vertex 10.4012 -11.4972 -7.45
      vertex 10.2692 -11.5265 -4.45
      vertex 10.4012 -11.4972 -4.45
    endloop
  endfacet
  facet normal -0.216696 0.976239 0
    outer loop
      vertex 10.2692 -11.5265 -4.45
      vertex 10.4012 -11.4972 -7.45
      vertex 10.2692 -11.5265 -7.45
    endloop
  endfacet
  facet normal 0.608767 -0.793349 0
    outer loop
      vertex 9.00368 -8.81263 -7.45
      vertex 9.11096 -8.73031 -4.45
      vertex 9.00368 -8.81263 -4.45
    endloop
  endfacet
  facet normal 0.608767 -0.793349 0
    outer loop
      vertex 9.11096 -8.73031 -4.45
      vertex 9.00368 -8.81263 -7.45
      vertex 9.11096 -8.73031 -7.45
    endloop
  endfacet
  facet normal 0.793404 0.608695 0
    outer loop
      vertex 8.81263 -10.9963 -4.45
      vertex 8.73031 -10.889 -7.45
      vertex 8.73031 -10.889 -4.45
    endloop
  endfacet
  facet normal 0.793404 0.608695 0
    outer loop
      vertex 8.73031 -10.889 -7.45
      vertex 8.81263 -10.9963 -4.45
      vertex 8.81263 -10.9963 -7.45
    endloop
  endfacet
  facet normal -1 0 0
    outer loop
      vertex 11.55 -8.45 -9.655
      vertex 11.55 -10 -7.45
      vertex 11.55 -8.45 -7.45
    endloop
  endfacet
  facet normal -1 0 0
    outer loop
      vertex 11.55 -11.55 -9.655
      vertex 11.55 -10 -7.45
      vertex 11.55 -8.45 -9.655
    endloop
  endfacet
  facet normal -1 -0 0
    outer loop
      vertex 11.55 -10 -7.45
      vertex 11.55 -11.55 -9.655
      vertex 11.55 -11.55 -7.45
    endloop
  endfacet
  facet normal 0 0 -1
    outer loop
      vertex 11.55 -11.55 -7.45
      vertex 11.5441 -10.1351 -7.45
      vertex 11.55 -10 -7.45
    endloop
  endfacet
  facet normal 0 0 -1
    outer loop
      vertex 11.55 -11.55 -7.45
      vertex 11.5265 -10.2692 -7.45
      vertex 11.5441 -10.1351 -7.45
    endloop
  endfacet
  facet normal 0 0 -1
    outer loop
      vertex 11.55 -11.55 -7.45
      vertex 11.4972 -10.4012 -7.45
      vertex 11.5265 -10.2692 -7.45
    endloop
  endfacet
  facet normal 0 0 -1
    outer loop
      vertex 11.55 -11.55 -7.45
      vertex 11.4565 -10.5301 -7.45
      vertex 11.4972 -10.4012 -7.45
    endloop
  endfacet
  facet normal 0 0 -1
    outer loop
      vertex 11.55 -11.55 -7.45
      vertex 11.4048 -10.6551 -7.45
      vertex 11.4565 -10.5301 -7.45
    endloop
  endfacet
  facet normal 0 0 -1
    outer loop
      vertex 11.55 -11.55 -7.45
      vertex 11.3423 -10.775 -7.45
      vertex 11.4048 -10.6551 -7.45
    endloop
  endfacet
  facet normal 0 0 -1
    outer loop
      vertex 11.55 -11.55 -7.45
      vertex 11.2697 -10.889 -7.45
      vertex 11.3423 -10.775 -7.45
    endloop
  endfacet
  facet normal 0 0 -1
    outer loop
      vertex 11.55 -11.55 -7.45
      vertex 11.1874 -10.9963 -7.45
      vertex 11.2697 -10.889 -7.45
    endloop
  endfacet
  facet normal 0 0 -1
    outer loop
      vertex 11.55 -11.55 -7.45
      vertex 11.096 -11.096 -7.45
      vertex 11.1874 -10.9963 -7.45
    endloop
  endfacet
  facet normal 0 0 -1
    outer loop
      vertex 11.55 -11.55 -7.45
      vertex 10.9963 -11.1874 -7.45
      vertex 11.096 -11.096 -7.45
    endloop
  endfacet
  facet normal 0 0 -1
    outer loop
      vertex 11.55 -11.55 -7.45
      vertex 10.889 -11.2697 -7.45
      vertex 10.9963 -11.1874 -7.45
    endloop
  endfacet
  facet normal 0 0 -1
    outer loop
      vertex 11.55 -11.55 -7.45
      vertex 10.775 -11.3423 -7.45
      vertex 10.889 -11.2697 -7.45
    endloop
  endfacet
  facet normal 0 0 -1
    outer loop
      vertex 11.55 -11.55 -7.45
      vertex 10.6551 -11.4048 -7.45
      vertex 10.775 -11.3423 -7.45
    endloop
  endfacet
  facet normal 0 0 -1
    outer loop
      vertex 11.55 -11.55 -7.45
      vertex 10.5301 -11.4565 -7.45
      vertex 10.6551 -11.4048 -7.45
    endloop
  endfacet
  facet normal 0 0 -1
    outer loop
      vertex 11.55 -11.55 -7.45
      vertex 10.4012 -11.4972 -7.45
      vertex 10.5301 -11.4565 -7.45
    endloop
  endfacet
  facet normal 0 0 -1
    outer loop
      vertex 11.55 -11.55 -7.45
      vertex 10.2692 -11.5265 -7.45
      vertex 10.4012 -11.4972 -7.45
    endloop
  endfacet
  facet normal 0 0 -1
    outer loop
      vertex 11.55 -11.55 -7.45
      vertex 10.1351 -11.5441 -7.45
      vertex 10.2692 -11.5265 -7.45
    endloop
  endfacet
  facet normal 0 -0 -1
    outer loop
      vertex 10.1351 -11.5441 -7.45
      vertex 11.55 -11.55 -7.45
      vertex 10 -11.55 -7.45
    endloop
  endfacet
  facet normal 0 0 -1
    outer loop
      vertex 11.5441 -9.86491 -7.45
      vertex 11.55 -8.45 -7.45
      vertex 11.55 -10 -7.45
    endloop
  endfacet
  facet normal 0 0 -1
    outer loop
      vertex 11.5265 -9.73084 -7.45
      vertex 11.55 -8.45 -7.45
      vertex 11.5441 -9.86491 -7.45
    endloop
  endfacet
  facet normal 0 0 -1
    outer loop
      vertex 11.4972 -9.59883 -7.45
      vertex 11.55 -8.45 -7.45
      vertex 11.5265 -9.73084 -7.45
    endloop
  endfacet
  facet normal 0 0 -1
    outer loop
      vertex 11.4565 -9.46987 -7.45
      vertex 11.55 -8.45 -7.45
      vertex 11.4972 -9.59883 -7.45
    endloop
  endfacet
  facet normal 0 0 -1
    outer loop
      vertex 11.4048 -9.34494 -7.45
      vertex 11.55 -8.45 -7.45
      vertex 11.4565 -9.46987 -7.45
    endloop
  endfacet
  facet normal 0 0 -1
    outer loop
      vertex 11.3423 -9.225 -7.45
      vertex 11.55 -8.45 -7.45
      vertex 11.4048 -9.34494 -7.45
    endloop
  endfacet
  facet normal 0 0 -1
    outer loop
      vertex 11.2697 -9.11096 -7.45
      vertex 11.55 -8.45 -7.45
      vertex 11.3423 -9.225 -7.45
    endloop
  endfacet
  facet normal 0 0 -1
    outer loop
      vertex 11.1874 -9.00368 -7.45
      vertex 11.55 -8.45 -7.45
      vertex 11.2697 -9.11096 -7.45
    endloop
  endfacet
  facet normal 0 0 -1
    outer loop
      vertex 11.096 -8.90398 -7.45
      vertex 11.55 -8.45 -7.45
      vertex 11.1874 -9.00368 -7.45
    endloop
  endfacet
  facet normal 0 0 -1
    outer loop
      vertex 10.9963 -8.81263 -7.45
      vertex 11.55 -8.45 -7.45
      vertex 11.096 -8.90398 -7.45
    endloop
  endfacet
  facet normal 0 0 -1
    outer loop
      vertex 10.889 -8.73031 -7.45
      vertex 11.55 -8.45 -7.45
      vertex 10.9963 -8.81263 -7.45
    endloop
  endfacet
  facet normal 0 0 -1
    outer loop
      vertex 10.775 -8.65766 -7.45
      vertex 11.55 -8.45 -7.45
      vertex 10.889 -8.73031 -7.45
    endloop
  endfacet
  facet normal 0 0 -1
    outer loop
      vertex 10.6551 -8.59522 -7.45
      vertex 11.55 -8.45 -7.45
      vertex 10.775 -8.65766 -7.45
    endloop
  endfacet
  facet normal 0 0 -1
    outer loop
      vertex 10.5301 -8.54348 -7.45
      vertex 11.55 -8.45 -7.45
      vertex 10.6551 -8.59522 -7.45
    endloop
  endfacet
  facet normal 0 0 -1
    outer loop
      vertex 10.4012 -8.50281 -7.45
      vertex 11.55 -8.45 -7.45
      vertex 10.5301 -8.54348 -7.45
    endloop
  endfacet
  facet normal 0 0 -1
    outer loop
      vertex 10.2692 -8.47355 -7.45
      vertex 11.55 -8.45 -7.45
      vertex 10.4012 -8.50281 -7.45
    endloop
  endfacet
  facet normal 0 0 -1
    outer loop
      vertex 10.1351 -8.4559 -7.45
      vertex 11.55 -8.45 -7.45
      vertex 10.2692 -8.47355 -7.45
    endloop
  endfacet
  facet normal -0 0 -1
    outer loop
      vertex 11.55 -8.45 -7.45
      vertex 10.1351 -8.4559 -7.45
      vertex 10 -8.45 -7.45
    endloop
  endfacet
  facet normal 0 0 -1
    outer loop
      vertex 9.86491 -8.4559 -7.45
      vertex 8.45 -8.45 -7.45
      vertex 10 -8.45 -7.45
    endloop
  endfacet
  facet normal 0 0 -1
    outer loop
      vertex 9.73084 -8.47355 -7.45
      vertex 8.45 -8.45 -7.45
      vertex 9.86491 -8.4559 -7.45
    endloop
  endfacet
  facet normal 0 0 -1
    outer loop
      vertex 9.59883 -8.50281 -7.45
      vertex 8.45 -8.45 -7.45
      vertex 9.73084 -8.47355 -7.45
    endloop
  endfacet
  facet normal 0 0 -1
    outer loop
      vertex 9.46987 -8.54348 -7.45
      vertex 8.45 -8.45 -7.45
      vertex 9.59883 -8.50281 -7.45
    endloop
  endfacet
  facet normal 0 0 -1
    outer loop
      vertex 9.34494 -8.59522 -7.45
      vertex 8.45 -8.45 -7.45
      vertex 9.46987 -8.54348 -7.45
    endloop
  endfacet
  facet normal 0 0 -1
    outer loop
      vertex 9.225 -8.65766 -7.45
      vertex 8.45 -8.45 -7.45
      vertex 9.34494 -8.59522 -7.45
    endloop
  endfacet
  facet normal 0 0 -1
    outer loop
      vertex 9.11096 -8.73031 -7.45
      vertex 8.45 -8.45 -7.45
      vertex 9.225 -8.65766 -7.45
    endloop
  endfacet
  facet normal 0 0 -1
    outer loop
      vertex 9.00368 -8.81263 -7.45
      vertex 8.45 -8.45 -7.45
      vertex 9.11096 -8.73031 -7.45
    endloop
  endfacet
  facet normal 0 0 -1
    outer loop
      vertex 8.90398 -8.90398 -7.45
      vertex 8.45 -8.45 -7.45
      vertex 9.00368 -8.81263 -7.45
    endloop
  endfacet
  facet normal 0 0 -1
    outer loop
      vertex 8.81263 -9.00368 -7.45
      vertex 8.45 -8.45 -7.45
      vertex 8.90398 -8.90398 -7.45
    endloop
  endfacet
  facet normal 0 0 -1
    outer loop
      vertex 8.73031 -9.11096 -7.45
      vertex 8.45 -8.45 -7.45
      vertex 8.81263 -9.00368 -7.45
    endloop
  endfacet
  facet normal 0 0 -1
    outer loop
      vertex 8.65766 -9.225 -7.45
      vertex 8.45 -8.45 -7.45
      vertex 8.73031 -9.11096 -7.45
    endloop
  endfacet
  facet normal 0 0 -1
    outer loop
      vertex 8.59522 -9.34494 -7.45
      vertex 8.45 -8.45 -7.45
      vertex 8.65766 -9.225 -7.45
    endloop
  endfacet
  facet normal 0 0 -1
    outer loop
      vertex 8.54348 -9.46987 -7.45
      vertex 8.45 -8.45 -7.45
      vertex 8.59522 -9.34494 -7.45
    endloop
  endfacet
  facet normal 0 0 -1
    outer loop
      vertex 8.50281 -9.59883 -7.45
      vertex 8.45 -8.45 -7.45
      vertex 8.54348 -9.46987 -7.45
    endloop
  endfacet
  facet normal 0 0 -1
    outer loop
      vertex 8.47355 -9.73084 -7.45
      vertex 8.45 -8.45 -7.45
      vertex 8.50281 -9.59883 -7.45
    endloop
  endfacet
  facet normal 0 0 -1
    outer loop
      vertex 8.4559 -9.86491 -7.45
      vertex 8.45 -8.45 -7.45
      vertex 8.47355 -9.73084 -7.45
    endloop
  endfacet
  facet normal 0 0 -1
    outer loop
      vertex 8.45 -8.45 -7.45
      vertex 8.4559 -9.86491 -7.45
      vertex 8.45 -10 -7.45
    endloop
  endfacet
  facet normal 0 0 -1
    outer loop
      vertex 8.45 -11.55 -7.45
      vertex 9.86491 -11.5441 -7.45
      vertex 10 -11.55 -7.45
    endloop
  endfacet
  facet normal 0 0 -1
    outer loop
      vertex 8.45 -11.55 -7.45
      vertex 9.73084 -11.5265 -7.45
      vertex 9.86491 -11.5441 -7.45
    endloop
  endfacet
  facet normal 0 0 -1
    outer loop
      vertex 8.45 -11.55 -7.45
      vertex 9.59883 -11.4972 -7.45
      vertex 9.73084 -11.5265 -7.45
    endloop
  endfacet
  facet normal 0 0 -1
    outer loop
      vertex 8.45 -11.55 -7.45
      vertex 9.46987 -11.4565 -7.45
      vertex 9.59883 -11.4972 -7.45
    endloop
  endfacet
  facet normal 0 0 -1
    outer loop
      vertex 8.45 -11.55 -7.45
      vertex 9.34494 -11.4048 -7.45
      vertex 9.46987 -11.4565 -7.45
    endloop
  endfacet
  facet normal 0 0 -1
    outer loop
      vertex 8.45 -11.55 -7.45
      vertex 9.225 -11.3423 -7.45
      vertex 9.34494 -11.4048 -7.45
    endloop
  endfacet
  facet normal 0 0 -1
    outer loop
      vertex 8.45 -11.55 -7.45
      vertex 9.11096 -11.2697 -7.45
      vertex 9.225 -11.3423 -7.45
    endloop
  endfacet
  facet normal 0 0 -1
    outer loop
      vertex 8.45 -11.55 -7.45
      vertex 9.00368 -11.1874 -7.45
      vertex 9.11096 -11.2697 -7.45
    endloop
  endfacet
  facet normal 0 0 -1
    outer loop
      vertex 8.45 -11.55 -7.45
      vertex 8.90398 -11.096 -7.45
      vertex 9.00368 -11.1874 -7.45
    endloop
  endfacet
  facet normal 0 0 -1
    outer loop
      vertex 8.45 -11.55 -7.45
      vertex 8.81263 -10.9963 -7.45
      vertex 8.90398 -11.096 -7.45
    endloop
  endfacet
  facet normal 0 0 -1
    outer loop
      vertex 8.45 -11.55 -7.45
      vertex 8.73031 -10.889 -7.45
      vertex 8.81263 -10.9963 -7.45
    endloop
  endfacet
  facet normal 0 0 -1
    outer loop
      vertex 8.45 -11.55 -7.45
      vertex 8.65766 -10.775 -7.45
      vertex 8.73031 -10.889 -7.45
    endloop
  endfacet
  facet normal 0 0 -1
    outer loop
      vertex 8.45 -11.55 -7.45
      vertex 8.59522 -10.6551 -7.45
      vertex 8.65766 -10.775 -7.45
    endloop
  endfacet
  facet normal 0 0 -1
    outer loop
      vertex 8.45 -11.55 -7.45
      vertex 8.54348 -10.5301 -7.45
      vertex 8.59522 -10.6551 -7.45
    endloop
  endfacet
  facet normal 0 0 -1
    outer loop
      vertex 8.45 -11.55 -7.45
      vertex 8.50281 -10.4012 -7.45
      vertex 8.54348 -10.5301 -7.45
    endloop
  endfacet
  facet normal 0 0 -1
    outer loop
      vertex 8.45 -11.55 -7.45
      vertex 8.47355 -10.2692 -7.45
      vertex 8.50281 -10.4012 -7.45
    endloop
  endfacet
  facet normal 0 0 -1
    outer loop
      vertex 8.45 -11.55 -7.45
      vertex 8.4559 -10.1351 -7.45
      vertex 8.47355 -10.2692 -7.45
    endloop
  endfacet
  facet normal -0 0 -1
    outer loop
      vertex 8.4559 -10.1351 -7.45
      vertex 8.45 -11.55 -7.45
      vertex 8.45 -10 -7.45
    endloop
  endfacet
  facet normal 1 -0 0
    outer loop
      vertex 8.45 -10 -7.45
      vertex 8.45 -8.45 -12.755
      vertex 8.45 -8.45 -7.45
    endloop
  endfacet
  facet normal 1 0 0
    outer loop
      vertex 8.45 -11.55 -12.755
      vertex 8.45 -10 -7.45
      vertex 8.45 -11.55 -7.45
    endloop
  endfacet
  facet normal 1 0 0
    outer loop
      vertex 8.45 -10 -7.45
      vertex 8.45 -11.55 -12.755
      vertex 8.45 -8.45 -12.755
    endloop
  endfacet
  facet normal 0 1 -0
    outer loop
      vertex 11.55 -11.55 -9.655
      vertex 10 -11.55 -7.45
      vertex 11.55 -11.55 -7.45
    endloop
  endfacet
  facet normal 0 1 0
    outer loop
      vertex 10 -11.55 -7.45
      vertex 11.55 -11.55 -9.655
      vertex 8.45 -11.55 -7.45
    endloop
  endfacet
  facet normal 0 1 0
    outer loop
      vertex 8.45 -11.55 -7.45
      vertex 11.55 -11.55 -9.655
      vertex 8.45 -11.55 -12.755
    endloop
  endfacet
  facet normal 0 -1 0
    outer loop
      vertex 11.55 -8.45 -9.655
      vertex 10 -8.45 -7.45
      vertex 8.45 -8.45 -7.45
    endloop
  endfacet
  facet normal 0 -1 0
    outer loop
      vertex 10 -8.45 -7.45
      vertex 11.55 -8.45 -9.655
      vertex 11.55 -8.45 -7.45
    endloop
  endfacet
  facet normal -0 -1 0
    outer loop
      vertex 11.55 -8.45 -9.655
      vertex 8.45 -8.45 -7.45
      vertex 8.45 -8.45 -12.755
    endloop
  endfacet
  facet normal 0.0436449 -0.999047 0
    outer loop
      vertex 6.65138 -3.01523 -2
      vertex 7 -3 0
      vertex 6.65138 -3.01523 0
    endloop
  endfacet
  facet normal 0.0436449 -0.999047 0
    outer loop
      vertex 7 -3 0
      vertex 6.65138 -3.01523 -2
      vertex 7 -3 -2
    endloop
  endfacet
  facet normal 0.130529 -0.991445 0
    outer loop
      vertex 6.3054 -3.06078 -2
      vertex 6.65138 -3.01523 0
      vertex 6.3054 -3.06078 0
    endloop
  endfacet
  facet normal 0.130529 -0.991445 0
    outer loop
      vertex 6.65138 -3.01523 0
      vertex 6.3054 -3.06078 -2
      vertex 6.65138 -3.01523 -2
    endloop
  endfacet
  facet normal 0.216393 -0.976306 0
    outer loop
      vertex 5.96472 -3.13629 -2
      vertex 6.3054 -3.06078 0
      vertex 5.96472 -3.13629 0
    endloop
  endfacet
  facet normal 0.216393 -0.976306 0
    outer loop
      vertex 6.3054 -3.06078 0
      vertex 5.96472 -3.13629 -2
      vertex 6.3054 -3.06078 -2
    endloop
  endfacet
  facet normal 0.30072 -0.953713 0
    outer loop
      vertex 5.63191 -3.24123 -2
      vertex 5.96472 -3.13629 0
      vertex 5.63191 -3.24123 0
    endloop
  endfacet
  facet normal 0.30072 -0.953713 0
    outer loop
      vertex 5.96472 -3.13629 0
      vertex 5.63191 -3.24123 -2
      vertex 5.96472 -3.13629 -2
    endloop
  endfacet
  facet normal 0.382688 -0.923878 0
    outer loop
      vertex 5.30952 -3.37477 -2
      vertex 5.63191 -3.24123 0
      vertex 5.30952 -3.37477 0
    endloop
  endfacet
  facet normal 0.382688 -0.923878 0
    outer loop
      vertex 5.63191 -3.24123 0
      vertex 5.30952 -3.37477 -2
      vertex 5.63191 -3.24123 -2
    endloop
  endfacet
  facet normal 0.461758 -0.887006 0
    outer loop
      vertex 5 -3.5359 -2
      vertex 5.30952 -3.37477 0
      vertex 5 -3.5359 0
    endloop
  endfacet
  facet normal 0.461758 -0.887006 0
    outer loop
      vertex 5.30952 -3.37477 0
      vertex 5 -3.5359 -2
      vertex 5.30952 -3.37477 -2
    endloop
  endfacet
  facet normal 0.537287 -0.843399 0
    outer loop
      vertex 4.70569 -3.72339 -2
      vertex 5 -3.5359 0
      vertex 4.70569 -3.72339 0
    endloop
  endfacet
  facet normal 0.537287 -0.843399 0
    outer loop
      vertex 5 -3.5359 0
      vertex 4.70569 -3.72339 -2
      vertex 5 -3.5359 -2
    endloop
  endfacet
  facet normal 0.608767 -0.793349 0
    outer loop
      vertex 4.42885 -3.93582 -2
      vertex 4.70569 -3.72339 0
      vertex 4.42885 -3.93582 0
    endloop
  endfacet
  facet normal 0.608767 -0.793349 0
    outer loop
      vertex 4.70569 -3.72339 0
      vertex 4.42885 -3.93582 -2
      vertex 4.70569 -3.72339 -2
    endloop
  endfacet
  facet normal 0.675584 -0.737283 0
    outer loop
      vertex 4.17157 -4.17157 -2
      vertex 4.42885 -3.93582 0
      vertex 4.17157 -4.17157 0
    endloop
  endfacet
  facet normal 0.675584 -0.737283 0
    outer loop
      vertex 4.42885 -3.93582 0
      vertex 4.17157 -4.17157 -2
      vertex 4.42885 -3.93582 -2
    endloop
  endfacet
  facet normal 0.737283 -0.675584 0
    outer loop
      vertex 3.93582 -4.42885 0
      vertex 4.17157 -4.17157 -2
      vertex 4.17157 -4.17157 0
    endloop
  endfacet
  facet normal 0.737283 -0.675584 0
    outer loop
      vertex 4.17157 -4.17157 -2
      vertex 3.93582 -4.42885 0
      vertex 3.93582 -4.42885 -2
    endloop
  endfacet
  facet normal 0.793349 -0.608767 0
    outer loop
      vertex 3.72339 -4.70569 0
      vertex 3.93582 -4.42885 -2
      vertex 3.93582 -4.42885 0
    endloop
  endfacet
  facet normal 0.793349 -0.608767 0
    outer loop
      vertex 3.93582 -4.42885 -2
      vertex 3.72339 -4.70569 0
      vertex 3.72339 -4.70569 -2
    endloop
  endfacet
  facet normal 0.843399 -0.537287 0
    outer loop
      vertex 3.5359 -5 0
      vertex 3.72339 -4.70569 -2
      vertex 3.72339 -4.70569 0
    endloop
  endfacet
  facet normal 0.843399 -0.537287 0
    outer loop
      vertex 3.72339 -4.70569 -2
      vertex 3.5359 -5 0
      vertex 3.5359 -5 -2
    endloop
  endfacet
  facet normal 0.887006 -0.461758 0
    outer loop
      vertex 3.37477 -5.30952 0
      vertex 3.5359 -5 -2
      vertex 3.5359 -5 0
    endloop
  endfacet
  facet normal 0.887006 -0.461758 0
    outer loop
      vertex 3.5359 -5 -2
      vertex 3.37477 -5.30952 0
      vertex 3.37477 -5.30952 -2
    endloop
  endfacet
  facet normal 0.923878 -0.382688 0
    outer loop
      vertex 3.24123 -5.63191 0
      vertex 3.37477 -5.30952 -2
      vertex 3.37477 -5.30952 0
    endloop
  endfacet
  facet normal 0.923878 -0.382688 0
    outer loop
      vertex 3.37477 -5.30952 -2
      vertex 3.24123 -5.63191 0
      vertex 3.24123 -5.63191 -2
    endloop
  endfacet
  facet normal 0.953713 -0.30072 0
    outer loop
      vertex 3.13629 -5.96472 0
      vertex 3.24123 -5.63191 -2
      vertex 3.24123 -5.63191 0
    endloop
  endfacet
  facet normal 0.953713 -0.30072 0
    outer loop
      vertex 3.24123 -5.63191 -2
      vertex 3.13629 -5.96472 0
      vertex 3.13629 -5.96472 -2
    endloop
  endfacet
  facet normal 0.976306 -0.216393 0
    outer loop
      vertex 3.06078 -6.3054 0
      vertex 3.13629 -5.96472 -2
      vertex 3.13629 -5.96472 0
    endloop
  endfacet
  facet normal 0.976306 -0.216393 0
    outer loop
      vertex 3.13629 -5.96472 -2
      vertex 3.06078 -6.3054 0
      vertex 3.06078 -6.3054 -2
    endloop
  endfacet
  facet normal 0.991445 -0.130529 0
    outer loop
      vertex 3.01523 -6.65138 0
      vertex 3.06078 -6.3054 -2
      vertex 3.06078 -6.3054 0
    endloop
  endfacet
  facet normal 0.991445 -0.130529 0
    outer loop
      vertex 3.06078 -6.3054 -2
      vertex 3.01523 -6.65138 0
      vertex 3.01523 -6.65138 -2
    endloop
  endfacet
  facet normal 0.999047 -0.0436449 0
    outer loop
      vertex 3 -7 0
      vertex 3.01523 -6.65138 -2
      vertex 3.01523 -6.65138 0
    endloop
  endfacet
  facet normal 0.999047 -0.0436449 0
    outer loop
      vertex 3.01523 -6.65138 -2
      vertex 3 -7 0
      vertex 3 -7 -2
    endloop
  endfacet
  facet normal 1 0 0
    outer loop
      vertex 20 -5 -5
      vertex 20 -3 -2
      vertex 20 -5 -2
    endloop
  endfacet
  facet normal 1 0 0
    outer loop
      vertex 20 -3 -2
      vertex 20 -5 -5
      vertex 20 -3 -7
    endloop
  endfacet
  facet normal 1 0 0
    outer loop
      vertex 20 -3 -2
      vertex 20 0 0
      vertex 20 -3 0
    endloop
  endfacet
  facet normal 1 0 0
    outer loop
      vertex 20 -3 -7
      vertex 20 0 0
      vertex 20 -3 -2
    endloop
  endfacet
  facet normal 1 0 0
    outer loop
      vertex 20 0 0
      vertex 20 -3 -7
      vertex 20 0 -20
    endloop
  endfacet
  facet normal 1 0 0
    outer loop
      vertex 20 0 -20
      vertex 20 -3 -7
      vertex 20 -3 -20
    endloop
  endfacet
  facet normal 0 -1 0
    outer loop
      vertex 0 -20 0
      vertex 3 -20 -2
      vertex 3 -20 0
    endloop
  endfacet
  facet normal 0 -1 0
    outer loop
      vertex 3 -20 -2
      vertex 5 -20 -5
      vertex 5 -20 -2
    endloop
  endfacet
  facet normal 0 -1 0
    outer loop
      vertex 3 -20 -7
      vertex 3 -20 -2
      vertex 0 -20 0
    endloop
  endfacet
  facet normal 0 -1 0
    outer loop
      vertex 3 -20 -2
      vertex 3 -20 -7
      vertex 5 -20 -5
    endloop
  endfacet
  facet normal 0 -1 0
    outer loop
      vertex 0 -20 -20
      vertex 3 -20 -7
      vertex 0 -20 0
    endloop
  endfacet
  facet normal 0 -1 -0
    outer loop
      vertex 3 -20 -7
      vertex 0 -20 -20
      vertex 3 -20 -20
    endloop
  endfacet
  facet normal 0 0 -1
    outer loop
      vertex 3 -20 -20
      vertex 0 -20 -20
      vertex 3 -3 -20
    endloop
  endfacet
  facet normal 0 0 -1
    outer loop
      vertex 3 -3 -20
      vertex 20 0 -20
      vertex 20 -3 -20
    endloop
  endfacet
  facet normal 0 0 -1
    outer loop
      vertex 3 -3 -20
      vertex 0 0 -20
      vertex 20 0 -20
    endloop
  endfacet
  facet normal 0 0 -1
    outer loop
      vertex 0 0 -20
      vertex 3 -3 -20
      vertex 0 -20 -20
    endloop
  endfacet
endsolid OpenSCAD_Model
